<svg id="logo-element" xmlns="http://www.w3.org/2000/svg" xmlns:xlink="http://www.w3.org/1999/xlink" x="0px"
	 y="0px" viewBox="0 0 140 49.218" style="enable-background:new 0 0 140 49.218;"
	 xml:space="preserve">
<style type="text/css">
	.st0{fill:#231F20;}
</style>
<polygon class="st0" points="46.254,4.037 48.605,11.992 50.936,4.037 56.354,4.037 50.876,18.406 46.354,18.406 40.836,4.037 "/>
<rect x="57.401" y="4.037" class="st0" width="5.135" height="14.369"/>
<path class="st0" d="M74.081,9.5c-0.837-0.739-1.654-1.1-2.57-1.1c-1.634,0-2.889,1.24-2.889,2.84c0,1.6,1.235,2.8,2.87,2.8
	c0.936,0,1.713-0.299,2.59-0.92v5.076c-1.454,0.357-2.331,0.496-3.248,0.496c-4.3,0-7.503-3.141-7.503-7.292
	c0-4.213,3.303-7.57,7.443-7.57c0.698,0,1.475,0.099,2.271,0.258c0.339,0.061,0.538,0.12,1.036,0.259V9.5z"/>
<polygon class="st0" points="75.373,4.037 86.261,4.037 86.261,8.728 83.352,8.568 83.352,18.406 78.242,18.406 78.242,8.547 
	75.373,8.649 "/>
<path class="st0" d="M86.617,11.248c0,4.469,3.148,7.471,7.803,7.471c4.635,0,7.785-3.002,7.785-7.471
	c0-4.469-3.149-7.47-7.785-7.47C89.765,3.778,86.617,6.778,86.617,11.248z M94.42,8.368c1.45,0,2.523,1.22,2.523,2.859
	c0,1.68-1.053,2.901-2.523,2.901c-1.49,0-2.563-1.221-2.563-2.88S92.93,8.368,94.42,8.368z"/>
<path class="st0" d="M103.594,18.406h5.161v-3.34c0-0.04-0.02-0.218-0.041-0.457c-0.059-0.537-0.097-0.856-0.198-1.575
	c0.298,0.72,0.458,1.038,0.637,1.436l0.197,0.416l1.73,3.52h5.942l-3.729-5.613c1.737-0.579,2.614-1.861,2.614-3.863
	c0-2.828-2.333-4.892-5.544-4.892h-6.77V18.406z M108.775,7.911h0.675c0.854,0,1.412,0.499,1.412,1.261c0,0.8-0.538,1.28-1.412,1.28
	h-0.675V7.911z"/>
<rect x="118.237" y="4.037" class="st0" width="5.136" height="14.369"/>
<path class="st0" d="M124.162,18.406h5.419l0.538-1.828h3.924l0.54,1.828H140l-4.961-14.369h-5.917L124.162,18.406z M132.072,8.89
	l1.075,4.292h-2.172L132.072,8.89z"/>
<path class="st0" d="M52.472,29.181c0,0.637-0.063,1.212-0.206,1.72c-0.525,1.923-2.353,3.019-5.041,3.019
	c-1.526,0-2.921-0.414-3.825-1.113c-0.936-0.778-1.411-1.953-1.411-3.626v-6.947h4.074v6.452c0,0.575,0.032,0.909,0.112,1.069
	c0.144,0.383,0.572,0.623,1.051,0.623c0.301,0,0.541-0.08,0.748-0.24c0.349-0.24,0.429-0.494,0.429-1.452v-6.452h4.07V29.181z"/>
<polygon class="st0" points="53.806,22.234 57.897,22.234 61.449,28.051 61.449,22.234 65.491,22.234 65.491,33.693 61.307,33.693 
	57.881,28.051 57.881,33.693 53.806,33.693 "/>
<rect x="66.832" y="22.234" class="st0" width="4.095" height="11.459"/>
<polygon class="st0" points="75.75,22.234 77.625,28.578 79.483,22.234 83.804,22.234 79.436,33.693 75.83,33.693 71.43,22.234 "/>
<polygon class="st0" points="84.243,22.234 91.867,22.234 91.867,25.322 88.356,25.322 88.356,26.413 91.549,26.413 91.549,29.406 
	88.356,29.406 88.356,30.483 91.962,30.483 91.962,33.693 84.243,33.693 "/>
<path class="st0" d="M93.038,33.693h4.117V31.03c0-0.033-0.016-0.175-0.032-0.366c-0.047-0.429-0.08-0.682-0.158-1.256
	c0.237,0.574,0.363,0.827,0.507,1.145l0.159,0.332l1.378,2.807h4.739l-2.973-4.476c1.384-0.463,2.084-1.483,2.084-3.08
	c0-2.256-1.862-3.903-4.422-3.903h-5.4V33.693z M97.17,25.322h0.54c0.681,0,1.124,0.399,1.124,1.006
	c0,0.638-0.428,1.021-1.124,1.021h-0.54V25.322z"/>
<path class="st0" d="M105.034,29.589c1.018,0.798,1.907,1.18,2.798,1.18c0.605,0,1.04-0.271,1.04-0.67
	c0-0.224-0.162-0.43-0.402-0.51c-0.145-0.064-0.256-0.095-0.892-0.192c-0.683-0.127-1.034-0.206-1.335-0.317
	c-1.303-0.447-2.067-1.548-2.067-2.95c0-2.382,2.004-4.062,4.872-4.062c1.335,0,2.4,0.301,3.705,1.03l-1.145,2.904
	c-0.78-0.606-1.544-0.878-2.339-0.878c-0.573,0-0.96,0.24-0.96,0.59c0,0.304,0.241,0.463,0.912,0.59l0.748,0.176
	c0.828,0.206,1.192,0.335,1.638,0.573c0.939,0.542,1.48,1.547,1.48,2.773c0,2.447-2.005,4.094-4.968,4.094
	c-1.066,0-2.241-0.238-3.259-0.634c-0.383-0.143-0.604-0.237-1.113-0.522L105.034,29.589z"/>
<rect x="113.771" y="22.234" class="st0" width="4.094" height="11.459"/>
<polygon class="st0" points="118.827,22.234 127.506,22.234 127.506,25.975 125.187,25.848 125.187,33.693 121.113,33.693 
	121.113,25.832 118.827,25.911 "/>
<polygon class="st0" points="132.531,22.234 133.851,25.151 135.169,22.234 139.807,22.234 135.917,28.786 135.917,33.693 
	131.783,33.693 131.783,28.786 127.891,22.234 "/>
<g id="diamond">
	<path class="st0" d="M16.676,0.484c0.146-0.1,0.334-0.113,0.489-0.038C17.078,0.311,17.043,0.154,17.06,0
		c-0.079,0.015-0.16,0.016-0.238,0.005l-0.003,0.004C16.831,0.175,16.784,0.346,16.676,0.484z"/>
	<g>
		<path class="st0" d="M0.499,17.165c-0.094-0.161-0.089-0.363,0.017-0.52c-0.14,0.11-0.311,0.158-0.479,0.146L0,16.828
			c0.01,0.066,0.01,0.131,0.001,0.198l0.014,0.014C0.183,17.019,0.356,17.061,0.499,17.165z"/>
		<path class="st0" d="M17.255,2.782c-0.173,0.173-0.452,0.173-0.623,0c-0.172-0.172-0.172-0.45,0-0.623
			c0.172-0.172,0.451-0.172,0.623,0C17.427,2.332,17.427,2.61,17.255,2.782z M18.058,3.586c-0.172,0.172-0.451,0.172-0.624,0
			c-0.171-0.172-0.171-0.451,0-0.624c0.173-0.172,0.452-0.172,0.624,0C18.23,3.135,18.23,3.414,18.058,3.586z M18.857,4.386
			c-0.172,0.173-0.451,0.173-0.623,0c-0.172-0.172-0.172-0.451,0-0.623c0.172-0.173,0.451-0.173,0.623,0
			C19.03,3.934,19.03,4.214,18.857,4.386z M19.655,5.184c-0.171,0.172-0.451,0.172-0.623,0c-0.172-0.173-0.172-0.451,0-0.624
			c0.173-0.172,0.452-0.172,0.623,0C19.828,4.733,19.828,5.011,19.655,5.184z M20.443,5.97c-0.172,0.172-0.451,0.172-0.623,0
			c-0.172-0.172-0.172-0.451,0-0.623c0.172-0.172,0.451-0.172,0.623,0C20.615,5.52,20.615,5.799,20.443,5.97z M21.23,6.758
			c-0.172,0.172-0.451,0.172-0.623,0c-0.172-0.172-0.172-0.451,0-0.623c0.172-0.171,0.451-0.171,0.623,0
			C21.403,6.308,21.403,6.586,21.23,6.758z M22.032,7.559c-0.173,0.173-0.451,0.173-0.624,0c-0.172-0.172-0.172-0.451,0-0.623
			c0.172-0.172,0.451-0.172,0.624,0C22.204,7.108,22.204,7.387,22.032,7.559z M22.829,8.357c-0.172,0.172-0.451,0.172-0.624,0
			c-0.172-0.172-0.172-0.451,0-0.624c0.173-0.172,0.452-0.172,0.624,0C23.001,7.906,23.001,8.185,22.829,8.357z M23.621,9.149
			c-0.173,0.173-0.452,0.173-0.623,0c-0.173-0.172-0.173-0.451,0-0.623c0.172-0.173,0.451-0.173,0.623,0
			C23.793,8.698,23.793,8.977,23.621,9.149z M24.418,9.944c-0.173,0.173-0.452,0.173-0.624,0c-0.172-0.172-0.172-0.451,0-0.623
			c0.172-0.172,0.451-0.172,0.624,0C24.589,9.494,24.589,9.773,24.418,9.944z M25.214,10.743c-0.173,0.172-0.452,0.172-0.623,0
			c-0.173-0.173-0.173-0.452,0-0.624c0.171-0.172,0.45-0.172,0.623,0C25.386,10.29,25.386,10.569,25.214,10.743z M26.009,11.537
			c-0.172,0.173-0.451,0.173-0.623,0c-0.172-0.172-0.172-0.451,0-0.623c0.172-0.173,0.451-0.173,0.623,0
			C26.182,11.086,26.182,11.365,26.009,11.537z M26.801,12.329c-0.172,0.173-0.451,0.173-0.623,0c-0.172-0.172-0.172-0.451,0-0.623
			c0.172-0.173,0.451-0.173,0.623,0C26.973,11.878,26.973,12.157,26.801,12.329z M27.594,13.122c-0.172,0.172-0.451,0.172-0.624,0
			c-0.171-0.172-0.171-0.451,0-0.624c0.173-0.171,0.452-0.171,0.624,0C27.766,12.671,27.766,12.95,27.594,13.122z M28.388,13.916
			c-0.172,0.173-0.451,0.173-0.623,0c-0.172-0.172-0.172-0.451,0-0.623c0.172-0.173,0.451-0.173,0.623,0
			C28.56,13.465,28.56,13.744,28.388,13.916z M29.184,14.712c-0.172,0.173-0.451,0.173-0.623,0c-0.173-0.172-0.173-0.451,0-0.623
			c0.172-0.173,0.451-0.173,0.623,0C29.356,14.261,29.356,14.54,29.184,14.712z M29.975,15.503c-0.172,0.173-0.451,0.173-0.623,0
			c-0.172-0.172-0.172-0.451,0-0.623c0.172-0.173,0.451-0.173,0.623,0C30.148,15.052,30.148,15.332,29.975,15.503z M30.771,16.3
			c-0.172,0.171-0.451,0.171-0.623,0c-0.172-0.172-0.172-0.452,0-0.624c0.172-0.172,0.452-0.172,0.623,0
			C30.944,15.848,30.944,16.128,30.771,16.3z M31.563,17.091c-0.172,0.173-0.451,0.173-0.623,0c-0.172-0.172-0.172-0.451,0-0.624
			c0.173-0.172,0.452-0.172,0.623,0C31.735,16.64,31.735,16.919,31.563,17.091z M16.448,3.589c-0.172,0.172-0.451,0.172-0.624,0
			c-0.172-0.172-0.172-0.451,0-0.623c0.172-0.173,0.452-0.173,0.624,0C16.62,3.138,16.62,3.417,16.448,3.589z M19.043,6.189
			c0.153-0.154,0.403-0.154,0.557,0c0.153,0.154,0.153,0.403,0,0.557c-0.154,0.154-0.404,0.154-0.557,0
			C18.888,6.592,18.888,6.343,19.043,6.189z M18.253,5.4c0.154-0.154,0.404-0.154,0.557,0c0.154,0.154,0.154,0.403,0,0.557
			c-0.153,0.154-0.403,0.154-0.557,0C18.1,5.804,18.1,5.554,18.253,5.4z M17.985,4.616c0.14,0.14,0.14,0.365,0,0.505
			c-0.139,0.138-0.364,0.138-0.504,0c-0.139-0.14-0.139-0.364,0-0.505C17.621,4.477,17.846,4.477,17.985,4.616z M17.224,4.36
			c-0.154,0.153-0.403,0.153-0.557,0c-0.153-0.154-0.153-0.404,0-0.557c0.154-0.154,0.403-0.154,0.557,0
			C17.378,3.956,17.378,4.205,17.224,4.36z M29.384,16.519c0.155-0.154,0.404-0.154,0.557,0c0.153,0.153,0.153,0.403,0,0.557
			c-0.153,0.153-0.403,0.153-0.557,0C29.229,16.922,29.229,16.672,29.384,16.519z M23.042,10.183c0.139-0.138,0.366-0.138,0.504,0
			c0.14,0.14,0.14,0.366,0,0.504c-0.138,0.14-0.365,0.14-0.504,0C22.903,10.549,22.903,10.322,23.042,10.183z M24.353,11.487
			c-0.139,0.138-0.365,0.138-0.504,0c-0.139-0.14-0.139-0.366,0-0.504c0.139-0.14,0.365-0.14,0.504,0
			C24.492,11.122,24.492,11.348,24.353,11.487z M25.149,12.283c-0.139,0.14-0.365,0.14-0.504,0c-0.138-0.138-0.138-0.364,0-0.503
			c0.139-0.14,0.365-0.14,0.504,0C25.287,11.919,25.287,12.145,25.149,12.283z M25.938,13.072c-0.139,0.14-0.364,0.14-0.504,0
			c-0.139-0.138-0.139-0.364,0-0.504c0.14-0.138,0.365-0.138,0.504,0C26.078,12.708,26.078,12.934,25.938,13.072z M26.731,13.865
			c-0.14,0.14-0.365,0.14-0.504,0c-0.139-0.138-0.139-0.364,0-0.504c0.139-0.138,0.365-0.138,0.504,0
			C26.87,13.501,26.87,13.727,26.731,13.865z M27.526,14.66c-0.14,0.14-0.365,0.14-0.504,0c-0.14-0.138-0.14-0.364,0-0.504
			c0.14-0.138,0.364-0.138,0.504,0C27.665,14.295,27.665,14.521,27.526,14.66z M29.112,15.743c0.139,0.139,0.139,0.366,0,0.504
			c-0.139,0.14-0.365,0.14-0.504,0c-0.139-0.138-0.139-0.365,0-0.504C28.747,15.604,28.973,15.604,29.112,15.743z M28.317,15.451
			c-0.139,0.14-0.365,0.14-0.504,0c-0.139-0.139-0.139-0.364,0-0.504c0.139-0.14,0.365-0.14,0.504,0
			C28.456,15.087,28.456,15.312,28.317,15.451z M22.259,9.394c0.139-0.14,0.364-0.14,0.504,0c0.139,0.14,0.139,0.364,0,0.504
			c-0.14,0.14-0.365,0.14-0.504,0C22.12,9.758,22.12,9.533,22.259,9.394z M21.461,8.596c0.139-0.14,0.365-0.14,0.504,0
			c0.139,0.139,0.139,0.364,0,0.504c-0.139,0.138-0.365,0.138-0.504,0C21.322,8.96,21.322,8.735,21.461,8.596z M19.87,7.508
			c-0.14-0.14-0.14-0.365,0-0.504c0.138-0.14,0.365-0.14,0.504,0c0.138,0.139,0.138,0.364,0,0.504
			C20.235,7.647,20.009,7.647,19.87,7.508z M20.661,7.796c0.14-0.139,0.365-0.139,0.504,0c0.14,0.139,0.14,0.365,0,0.503
			c-0.139,0.14-0.364,0.14-0.504,0C20.522,8.161,20.522,7.934,20.661,7.796z M30.746,17.888c-0.172,0.172-0.451,0.172-0.622,0
			c-0.173-0.172-0.173-0.451,0-0.624c0.172-0.172,0.451-0.172,0.622,0C30.919,17.437,30.919,17.716,30.746,17.888z M15.647,4.39
			c-0.172,0.172-0.451,0.172-0.623,0c-0.172-0.172-0.172-0.451,0-0.623c0.172-0.172,0.451-0.172,0.623,0
			C15.819,3.938,15.819,4.218,15.647,4.39z M28.582,17.321c0.154-0.154,0.403-0.154,0.557,0c0.153,0.153,0.153,0.403,0,0.556
			c-0.154,0.154-0.403,0.154-0.557,0C28.429,17.723,28.429,17.474,28.582,17.321z M16.423,5.161c-0.153,0.153-0.403,0.153-0.556,0
			c-0.154-0.154-0.154-0.404,0-0.557c0.154-0.155,0.403-0.155,0.556,0C16.576,4.757,16.576,5.007,16.423,5.161z M17.184,5.922
			c-0.139,0.139-0.364,0.139-0.504,0c-0.139-0.14-0.139-0.365,0-0.504c0.14-0.14,0.365-0.14,0.504,0
			C17.323,5.557,17.323,5.783,17.184,5.922z M17.993,6.731c-0.14,0.138-0.365,0.138-0.504,0c-0.14-0.14-0.14-0.366,0-0.504
			c0.139-0.14,0.365-0.14,0.504,0C18.132,6.366,18.132,6.592,17.993,6.731z M18.776,7.515c-0.14,0.138-0.364,0.138-0.504,0
			c-0.138-0.14-0.138-0.366,0-0.504c0.14-0.14,0.364-0.14,0.504,0C18.915,7.149,18.915,7.375,18.776,7.515z M19.571,8.31
			c-0.139,0.139-0.365,0.139-0.503,0c-0.139-0.139-0.139-0.365,0-0.504c0.139-0.139,0.364-0.139,0.503,0
			C19.711,7.945,19.711,8.171,19.571,8.31z M20.363,9.102c-0.139,0.138-0.365,0.138-0.504,0c-0.139-0.14-0.139-0.365,0-0.504
			c0.14-0.14,0.365-0.14,0.504,0C20.503,8.737,20.503,8.962,20.363,9.102z M21.161,9.9c-0.139,0.14-0.365,0.14-0.503,0
			c-0.14-0.14-0.14-0.366,0-0.504c0.139-0.14,0.364-0.14,0.503,0C21.301,9.534,21.301,9.76,21.161,9.9z M21.952,10.691
			c-0.14,0.138-0.365,0.138-0.504,0c-0.14-0.14-0.14-0.366,0-0.504c0.139-0.14,0.364-0.14,0.504,0
			C22.09,10.325,22.09,10.551,21.952,10.691z M22.751,11.49c-0.138,0.14-0.364,0.14-0.504,0c-0.138-0.14-0.138-0.364,0-0.504
			c0.14-0.14,0.366-0.14,0.504,0C22.891,11.125,22.891,11.35,22.751,11.49z M23.548,12.285c-0.14,0.139-0.366,0.139-0.504,0
			c-0.14-0.138-0.14-0.365,0-0.503c0.138-0.14,0.364-0.14,0.504,0C23.686,11.921,23.686,12.147,23.548,12.285z M24.343,13.081
			c-0.14,0.14-0.365,0.14-0.504,0c-0.139-0.138-0.139-0.364,0-0.504c0.139-0.138,0.365-0.138,0.504,0
			C24.482,12.716,24.482,12.943,24.343,13.081z M25.132,13.87c-0.139,0.14-0.365,0.14-0.504,0c-0.139-0.14-0.139-0.365,0-0.504
			c0.139-0.14,0.365-0.14,0.504,0C25.271,13.506,25.271,13.731,25.132,13.87z M25.93,14.668c-0.139,0.138-0.366,0.138-0.504,0
			c-0.139-0.14-0.139-0.365,0-0.504c0.138-0.14,0.365-0.14,0.504,0C26.068,14.304,26.068,14.529,25.93,14.668z M27.806,16.545
			c0.14-0.14,0.365-0.14,0.504,0c0.139,0.14,0.139,0.364,0,0.504c-0.139,0.14-0.365,0.14-0.504,0
			C27.667,16.909,27.667,16.684,27.806,16.545z M26.256,15.423c-0.117-0.117-0.117-0.308,0-0.425c0.117-0.116,0.307-0.116,0.424,0
			c0.117,0.117,0.117,0.308,0,0.425C26.564,15.541,26.373,15.541,26.256,15.423z M27.052,15.804c0.117-0.117,0.306-0.117,0.424,0
			c0.117,0.116,0.117,0.306,0,0.424c-0.117,0.117-0.307,0.117-0.424,0C26.935,16.11,26.935,15.92,27.052,15.804z M29.946,18.688
			c-0.172,0.173-0.452,0.173-0.623,0c-0.172-0.172-0.172-0.451,0-0.622c0.171-0.173,0.451-0.173,0.623,0
			C30.117,18.237,30.117,18.516,29.946,18.688z M14.85,5.187c-0.173,0.173-0.452,0.173-0.624,0c-0.172-0.171-0.172-0.451,0-0.623
			c0.172-0.172,0.451-0.172,0.624,0C15.022,4.736,15.022,5.016,14.85,5.187z M27.78,18.121c0.154-0.153,0.403-0.153,0.557,0
			c0.155,0.154,0.155,0.404,0,0.557c-0.154,0.154-0.403,0.154-0.557,0C27.626,18.525,27.626,18.275,27.78,18.121z M15.621,5.962
			c-0.154,0.154-0.403,0.154-0.557,0c-0.153-0.154-0.153-0.403,0-0.557c0.154-0.154,0.403-0.154,0.557,0
			C15.775,5.56,15.775,5.809,15.621,5.962z M16.384,6.722c-0.139,0.14-0.365,0.14-0.503,0c-0.14-0.138-0.14-0.365,0-0.503
			c0.138-0.14,0.364-0.14,0.503,0C16.523,6.357,16.523,6.583,16.384,6.722z M27.007,17.345c0.14-0.139,0.365-0.139,0.504,0
			c0.139,0.138,0.139,0.365,0,0.504c-0.14,0.138-0.365,0.138-0.504,0C26.867,17.71,26.867,17.484,27.007,17.345z M26.25,16.605
			c0.117-0.117,0.307-0.117,0.424,0c0.117,0.117,0.117,0.308,0,0.424c-0.117,0.117-0.308,0.117-0.424,0
			C26.132,16.913,26.132,16.723,26.25,16.605z M25.833,15.863c0.088,0.089,0.088,0.231,0,0.319c-0.088,0.088-0.231,0.088-0.319,0
			c-0.088-0.088-0.088-0.23,0-0.319C25.603,15.776,25.745,15.776,25.833,15.863z M24.657,15.013c0.117-0.117,0.308-0.117,0.425,0
			c0.117,0.117,0.117,0.308,0,0.425c-0.117,0.116-0.308,0.116-0.425,0C24.54,15.321,24.54,15.13,24.657,15.013z M23.863,14.22
			c0.117-0.119,0.308-0.119,0.425,0c0.117,0.116,0.117,0.306,0,0.424c-0.117,0.117-0.307,0.117-0.425,0
			C23.746,14.526,23.746,14.336,23.863,14.22z M23.063,13.42c0.118-0.117,0.308-0.117,0.425,0c0.117,0.117,0.117,0.306,0,0.424
			c-0.117,0.117-0.306,0.117-0.425,0C22.946,13.726,22.946,13.537,23.063,13.42z M22.279,12.635c0.117-0.117,0.306-0.117,0.424,0
			c0.117,0.116,0.117,0.306,0,0.424c-0.117,0.117-0.307,0.117-0.424,0C22.161,12.941,22.161,12.751,22.279,12.635z M21.482,11.837
			c0.117-0.116,0.307-0.116,0.424,0c0.117,0.117,0.117,0.308,0,0.425c-0.117,0.117-0.307,0.117-0.424,0
			C21.365,12.145,21.365,11.954,21.482,11.837z M20.679,11.035c0.117-0.117,0.307-0.117,0.424,0c0.117,0.116,0.117,0.306,0,0.424
			c-0.117,0.117-0.308,0.117-0.424,0C20.561,11.342,20.561,11.151,20.679,11.035z M19.885,10.241c0.117-0.116,0.308-0.116,0.425,0
			c0.117,0.117,0.117,0.308,0,0.425c-0.117,0.117-0.308,0.117-0.425,0C19.768,10.549,19.768,10.358,19.885,10.241z M19.09,9.445
			c0.117-0.117,0.308-0.117,0.425,0c0.117,0.117,0.117,0.307,0,0.425c-0.117,0.117-0.308,0.117-0.425,0
			C18.973,9.753,18.973,9.563,19.09,9.445z M18.296,8.651c0.117-0.117,0.307-0.117,0.424,0c0.117,0.117,0.117,0.308,0,0.425
			c-0.117,0.117-0.307,0.117-0.424,0C18.179,8.959,18.179,8.768,18.296,8.651z M16.714,7.494c-0.117-0.117-0.117-0.307,0-0.424
			c0.117-0.118,0.307-0.118,0.424,0c0.117,0.117,0.117,0.306,0,0.424C17.021,7.611,16.831,7.611,16.714,7.494z M17.505,7.86
			c0.117-0.117,0.308-0.117,0.425,0c0.117,0.117,0.117,0.308,0,0.425c-0.117,0.117-0.308,0.117-0.425,0
			C17.387,8.168,17.387,7.978,17.505,7.86z M29.148,19.486c-0.172,0.172-0.451,0.172-0.622,0c-0.172-0.172-0.172-0.451,0-0.623
			c0.172-0.173,0.451-0.173,0.622,0C29.321,19.035,29.321,19.314,29.148,19.486z M14.047,5.99c-0.173,0.172-0.452,0.172-0.624,0
			c-0.172-0.172-0.172-0.451,0-0.623c0.172-0.172,0.451-0.172,0.624,0C14.219,5.539,14.219,5.818,14.047,5.99z M26.978,18.924
			c0.154-0.154,0.403-0.154,0.557,0c0.154,0.153,0.154,0.403,0,0.556c-0.154,0.155-0.403,0.155-0.557,0
			C26.825,19.327,26.825,19.077,26.978,18.924z M14.819,6.765c-0.154,0.153-0.403,0.153-0.557,0c-0.153-0.154-0.153-0.404,0-0.557
			c0.154-0.154,0.403-0.154,0.557,0C14.973,6.361,14.973,6.61,14.819,6.765z M15.591,7.515c-0.14,0.14-0.365,0.14-0.504,0
			c-0.14-0.139-0.14-0.364,0-0.504c0.139-0.139,0.364-0.139,0.504,0C15.73,7.15,15.73,7.376,15.591,7.515z M26.214,18.138
			c0.14-0.14,0.365-0.14,0.504,0c0.14,0.138,0.14,0.364,0,0.504c-0.14,0.138-0.364,0.138-0.504,0
			C26.074,18.503,26.074,18.277,26.214,18.138z M25.465,17.391c0.117-0.117,0.307-0.117,0.424,0c0.117,0.116,0.117,0.306,0,0.424
			c-0.117,0.117-0.308,0.117-0.424,0C25.348,17.697,25.348,17.507,25.465,17.391z M16.353,8.279c-0.117,0.117-0.307,0.117-0.424,0
			c-0.117-0.117-0.117-0.308,0-0.425c0.117-0.117,0.308-0.117,0.424,0C16.47,7.972,16.47,8.162,16.353,8.279z M17.083,9.022
			c-0.088,0.088-0.23,0.088-0.319,0c-0.088-0.088-0.088-0.231,0-0.319c0.088-0.088,0.231-0.088,0.319,0
			C17.171,8.791,17.171,8.933,17.083,9.022z M17.879,9.817c-0.088,0.088-0.231,0.088-0.319,0c-0.088-0.089-0.088-0.231,0-0.319
			c0.088-0.088,0.23-0.088,0.319,0C17.967,9.586,17.967,9.728,17.879,9.817z M18.674,10.612c-0.088,0.088-0.23,0.088-0.319,0
			c-0.088-0.088-0.088-0.23,0-0.319c0.089-0.086,0.231-0.086,0.319,0C18.762,10.382,18.762,10.524,18.674,10.612z M19.469,11.407
			c-0.088,0.088-0.23,0.088-0.318,0c-0.088-0.088-0.088-0.23,0-0.319c0.088-0.088,0.23-0.088,0.318,0
			C19.556,11.177,19.556,11.319,19.469,11.407z M20.264,12.203c-0.088,0.088-0.231,0.088-0.319,0c-0.088-0.088-0.088-0.231,0-0.319
			c0.088-0.088,0.231-0.088,0.319,0C20.352,11.972,20.352,12.115,20.264,12.203z M21.059,12.997c-0.088,0.089-0.23,0.089-0.318,0
			c-0.088-0.088-0.088-0.23,0-0.318c0.088-0.088,0.23-0.088,0.318,0C21.148,12.767,21.148,12.909,21.059,12.997z M21.854,13.792
			c-0.088,0.088-0.23,0.088-0.317,0c-0.088-0.088-0.088-0.23,0-0.317c0.088-0.089,0.23-0.089,0.317,0
			C21.942,13.563,21.942,13.705,21.854,13.792z M22.65,14.588c-0.088,0.088-0.23,0.088-0.318,0c-0.088-0.088-0.088-0.23,0-0.319
			c0.088-0.088,0.23-0.088,0.318,0C22.737,14.358,22.737,14.5,22.65,14.588z M23.445,15.384c-0.088,0.088-0.231,0.088-0.319,0
			c-0.088-0.089-0.088-0.231,0-0.319c0.088-0.088,0.231-0.088,0.319,0C23.533,15.153,23.533,15.295,23.445,15.384z M25.038,16.658
			c0.088,0.088,0.088,0.23,0,0.317c-0.088,0.089-0.23,0.089-0.318,0c-0.088-0.088-0.088-0.23,0-0.317
			C24.808,16.571,24.95,16.571,25.038,16.658z M24.241,16.179c-0.088,0.087-0.231,0.087-0.319,0c-0.088-0.089-0.088-0.231,0-0.319
			c0.088-0.088,0.23-0.088,0.319,0C24.329,15.948,24.329,16.09,24.241,16.179z M28.345,20.289c-0.172,0.172-0.451,0.172-0.623,0
			c-0.172-0.173-0.172-0.452,0-0.623c0.172-0.173,0.451-0.173,0.623,0C28.517,19.837,28.517,20.116,28.345,20.289z M13.245,6.792
			c-0.171,0.172-0.451,0.172-0.623,0c-0.172-0.172-0.172-0.451,0-0.624c0.172-0.172,0.452-0.172,0.623,0
			C13.418,6.34,13.418,6.62,13.245,6.792z M26.177,19.726c0.154-0.155,0.403-0.155,0.557,0c0.154,0.153,0.154,0.403,0,0.556
			c-0.154,0.154-0.403,0.154-0.557,0C26.023,20.128,26.023,19.879,26.177,19.726z M14.017,7.566c-0.154,0.154-0.403,0.154-0.557,0
			c-0.153-0.154-0.153-0.403,0-0.557c0.155-0.153,0.403-0.153,0.557,0C14.171,7.162,14.171,7.412,14.017,7.566z M14.782,8.324
			c-0.139,0.14-0.364,0.14-0.503,0c-0.14-0.14-0.14-0.364,0-0.504c0.139-0.139,0.365-0.139,0.503,0
			C14.922,7.959,14.922,8.184,14.782,8.324z M25.405,18.946c0.139-0.138,0.365-0.138,0.504,0c0.14,0.14,0.14,0.366,0,0.504
			c-0.139,0.14-0.365,0.138-0.504,0C25.266,19.312,25.266,19.086,25.405,18.946z M24.654,18.201c0.117-0.117,0.307-0.117,0.425,0
			c0.117,0.117,0.117,0.308,0,0.424c-0.118,0.117-0.308,0.117-0.425,0C24.536,18.509,24.536,18.319,24.654,18.201z M15.542,9.089
			c-0.117,0.117-0.307,0.117-0.424,0c-0.117-0.117-0.117-0.307,0-0.425c0.117-0.116,0.308-0.116,0.424,0
			C15.659,8.782,15.659,8.972,15.542,9.089z M24.23,17.468c0.088,0.088,0.088,0.23,0,0.318c-0.088,0.088-0.231,0.088-0.319,0
			c-0.088-0.088-0.088-0.23,0-0.318C23.999,17.38,24.142,17.38,24.23,17.468z M16.274,9.831c-0.088,0.088-0.23,0.088-0.318,0
			c-0.088-0.089-0.088-0.231,0-0.319c0.087-0.088,0.23-0.088,0.318,0C16.362,9.6,16.362,9.742,16.274,9.831z M27.544,21.089
			c-0.172,0.173-0.452,0.173-0.624,0c-0.172-0.172-0.172-0.451,0-0.623c0.172-0.173,0.451-0.173,0.624,0
			C27.716,20.639,27.716,20.918,27.544,21.089z M12.448,7.589c-0.172,0.171-0.451,0.171-0.623,0c-0.172-0.173-0.172-0.452,0-0.623
			c0.172-0.172,0.451-0.172,0.623,0C12.62,7.138,12.62,7.417,12.448,7.589z M25.375,20.526c0.154-0.153,0.403-0.153,0.557,0
			c0.153,0.154,0.153,0.404,0,0.557c-0.154,0.154-0.403,0.154-0.557,0C25.221,20.93,25.221,20.681,25.375,20.526z M13.216,8.367
			c-0.153,0.154-0.403,0.154-0.557,0c-0.154-0.153-0.154-0.403,0-0.556c0.154-0.154,0.403-0.154,0.557,0
			C13.37,7.964,13.37,8.214,13.216,8.367z M13.986,9.119c-0.139,0.14-0.365,0.14-0.504,0c-0.139-0.138-0.139-0.364,0-0.504
			c0.139-0.138,0.365-0.138,0.504,0C14.125,8.755,14.125,8.981,13.986,9.119z M24.609,19.743c0.138-0.14,0.365-0.14,0.504,0
			c0.138,0.139,0.138,0.364,0,0.504c-0.139,0.138-0.366,0.138-0.504,0C24.469,20.108,24.469,19.883,24.609,19.743z M23.854,19.001
			c0.117-0.117,0.307-0.117,0.424,0c0.117,0.117,0.117,0.308,0,0.425c-0.117,0.117-0.307,0.117-0.424,0
			C23.737,19.308,23.737,19.118,23.854,19.001z M14.742,9.89c-0.117,0.116-0.307,0.116-0.424,0c-0.117-0.117-0.117-0.308,0-0.425
			c0.117-0.117,0.307-0.117,0.424,0C14.86,9.583,14.86,9.773,14.742,9.89z M15.48,10.624c-0.088,0.089-0.231,0.089-0.319,0
			c-0.088-0.088-0.088-0.23,0-0.318c0.088-0.088,0.231-0.088,0.319,0C15.568,10.394,15.568,10.536,15.48,10.624z M23.117,18.262
			c0.088-0.089,0.23-0.089,0.319,0c0.088,0.088,0.088,0.231,0,0.319c-0.088,0.086-0.231,0.086-0.319,0
			C23.029,18.493,23.029,18.35,23.117,18.262z M22.327,17.524c0.066-0.066,0.173-0.066,0.238,0c0.067,0.067,0.067,0.173,0,0.24
			c-0.066,0.066-0.172,0.066-0.238,0C22.262,17.697,22.262,17.591,22.327,17.524z M21.542,16.708c0.065-0.067,0.171-0.067,0.237,0
			c0.065,0.064,0.065,0.171,0,0.236c-0.065,0.065-0.172,0.065-0.237,0C21.476,16.878,21.476,16.772,21.542,16.708z M20.767,15.933
			c0.066-0.066,0.172-0.066,0.237,0c0.066,0.066,0.066,0.172,0,0.237c-0.066,0.066-0.172,0.066-0.237,0
			C20.702,16.105,20.702,15.999,20.767,15.933z M19.952,15.118c0.066-0.066,0.172-0.066,0.237,0c0.065,0.065,0.065,0.172,0,0.236
			c-0.066,0.066-0.172,0.066-0.237,0C19.886,15.29,19.886,15.183,19.952,15.118z M18.363,13.528c0.065-0.064,0.17-0.064,0.236,0
			c0.066,0.067,0.066,0.172,0,0.237c-0.066,0.066-0.171,0.066-0.236,0C18.298,13.7,18.298,13.595,18.363,13.528z M16.78,12.182
			c-0.066-0.064-0.066-0.17,0-0.236c0.065-0.066,0.171-0.066,0.236,0c0.066,0.066,0.066,0.172,0,0.236
			C16.951,12.247,16.845,12.247,16.78,12.182z M17.575,12.741c0.066-0.065,0.172-0.065,0.237,0c0.065,0.066,0.065,0.171,0,0.236
			c-0.066,0.067-0.172,0.067-0.237,0C17.51,12.912,17.51,12.807,17.575,12.741z M26.746,21.888c-0.172,0.172-0.451,0.172-0.623,0
			c-0.171-0.172-0.171-0.451,0-0.623c0.172-0.172,0.451-0.172,0.623,0C26.919,21.437,26.919,21.716,26.746,21.888z M11.639,8.397
			c-0.172,0.173-0.451,0.173-0.623,0c-0.172-0.172-0.172-0.45,0-0.623c0.172-0.171,0.451-0.171,0.623,0
			C11.812,7.946,11.812,8.225,11.639,8.397z M24.574,21.329c0.153-0.154,0.403-0.154,0.556,0c0.154,0.153,0.154,0.403,0,0.556
			c-0.154,0.153-0.403,0.153-0.556,0C24.419,21.732,24.419,21.482,24.574,21.329z M12.414,9.169c-0.153,0.154-0.403,0.154-0.557,0
			c-0.153-0.153-0.153-0.403,0-0.557c0.154-0.154,0.404-0.154,0.557,0C12.568,8.766,12.568,9.015,12.414,9.169z M13.178,9.927
			c-0.139,0.138-0.364,0.138-0.504,0c-0.138-0.14-0.138-0.364,0-0.504c0.14-0.14,0.365-0.14,0.504,0
			C13.318,9.563,13.318,9.787,13.178,9.927z M23.802,20.55c0.139-0.138,0.365-0.138,0.504,0c0.139,0.14,0.139,0.366,0,0.504
			c-0.139,0.138-0.365,0.138-0.504,0C23.663,20.915,23.663,20.689,23.802,20.55z M23.046,19.807c0.117-0.116,0.308-0.116,0.425,0
			c0.117,0.117,0.117,0.308,0,0.425c-0.117,0.117-0.308,0.117-0.425,0C22.93,20.115,22.93,19.925,23.046,19.807z M13.936,10.697
			c-0.117,0.116-0.308,0.116-0.425,0c-0.117-0.117-0.117-0.308,0-0.425c0.117-0.116,0.308-0.116,0.425,0
			C14.053,10.389,14.053,10.579,13.936,10.697z M14.673,11.432c-0.088,0.088-0.231,0.088-0.319,0c-0.088-0.088-0.088-0.231,0-0.319
			c0.088-0.088,0.23-0.088,0.319,0C14.761,11.201,14.761,11.344,14.673,11.432z M22.31,19.069c0.088-0.088,0.23-0.088,0.318,0
			c0.088,0.088,0.088,0.23,0,0.319c-0.088,0.088-0.23,0.088-0.318,0C22.222,19.298,22.222,19.156,22.31,19.069z M21.531,18.321
			c0.065-0.066,0.173-0.066,0.238,0c0.066,0.067,0.066,0.174,0,0.24c-0.066,0.065-0.173,0.065-0.238,0
			C21.465,18.495,21.465,18.388,21.531,18.321z M20.741,17.507c0.065-0.065,0.17-0.065,0.236,0c0.066,0.067,0.066,0.172,0,0.237
			c-0.066,0.066-0.171,0.066-0.236,0C20.676,17.679,20.676,17.574,20.741,17.507z M19.967,16.734c0.065-0.065,0.171-0.065,0.236,0
			c0.066,0.066,0.066,0.172,0,0.237c-0.066,0.065-0.172,0.065-0.236,0C19.902,16.905,19.902,16.799,19.967,16.734z M19.193,14.33
			c0.066-0.067,0.172-0.067,0.237,0c0.065,0.064,0.065,0.171,0,0.236c-0.066,0.066-0.172,0.066-0.237,0
			C19.128,14.5,19.128,14.394,19.193,14.33z M19.145,15.912c0.066-0.066,0.171-0.066,0.237,0c0.065,0.066,0.065,0.17,0,0.236
			c-0.065,0.066-0.171,0.066-0.237,0C19.08,16.083,19.08,15.978,19.145,15.912z M18.378,15.145c0.066-0.066,0.171-0.066,0.236,0
			c0.066,0.065,0.066,0.17,0,0.236c-0.064,0.066-0.17,0.066-0.236,0C18.313,15.316,18.313,15.211,18.378,15.145z M17.563,14.33
			c0.065-0.067,0.171-0.067,0.236,0c0.065,0.064,0.065,0.171,0,0.236c-0.066,0.066-0.171,0.066-0.236,0
			C17.497,14.5,17.497,14.394,17.563,14.33z M15.979,12.982c-0.066-0.065-0.066-0.172,0-0.236c0.065-0.065,0.172-0.065,0.237,0
			c0.066,0.064,0.066,0.171,0,0.236C16.151,13.048,16.044,13.048,15.979,12.982z M16.775,13.542c0.066-0.066,0.171-0.066,0.237,0
			c0.065,0.066,0.065,0.17,0,0.236c-0.066,0.066-0.172,0.066-0.237,0C16.709,13.712,16.709,13.607,16.775,13.542z M25.938,22.695
			c-0.172,0.173-0.451,0.173-0.623,0c-0.172-0.172-0.172-0.451,0-0.624c0.172-0.17,0.452-0.17,0.623,0
			C26.11,22.244,26.11,22.524,25.938,22.695z M10.846,9.191c-0.172,0.173-0.452,0.173-0.624,0c-0.172-0.172-0.172-0.451,0-0.623
			c0.172-0.172,0.451-0.172,0.624,0C11.018,8.74,11.018,9.019,10.846,9.191z M23.771,22.131c0.154-0.154,0.403-0.154,0.557,0
			c0.153,0.153,0.153,0.403,0,0.556c-0.154,0.154-0.403,0.154-0.557,0C23.618,22.534,23.618,22.284,23.771,22.131z M11.612,9.972
			c-0.153,0.153-0.403,0.153-0.557,0c-0.153-0.154-0.153-0.404,0-0.557c0.154-0.154,0.404-0.154,0.557,0
			C11.767,9.568,11.767,9.817,11.612,9.972z M12.384,10.722c-0.14,0.14-0.364,0.14-0.504,0c-0.139-0.138-0.139-0.365,0-0.504
			c0.14-0.14,0.364-0.14,0.504,0C12.523,10.357,12.523,10.583,12.384,10.722z M23.008,21.345c0.139-0.139,0.364-0.139,0.503,0
			c0.138,0.138,0.138,0.365,0,0.503c-0.139,0.14-0.365,0.14-0.503,0C22.868,21.71,22.868,21.484,23.008,21.345z M22.257,20.597
			c0.117-0.116,0.308-0.116,0.425,0c0.117,0.117,0.117,0.308,0,0.425c-0.117,0.117-0.308,0.117-0.425,0
			C22.14,20.904,22.14,20.714,22.257,20.597z M13.147,11.486c-0.117,0.116-0.308,0.116-0.425,0c-0.117-0.117-0.117-0.308,0-0.424
			c0.117-0.118,0.308-0.118,0.425,0C13.263,11.179,13.263,11.369,13.147,11.486z M13.876,12.227c-0.088,0.088-0.23,0.088-0.318,0
			c-0.088-0.088-0.088-0.23,0-0.317c0.088-0.088,0.23-0.088,0.318,0C13.964,11.998,13.964,12.14,13.876,12.227z M21.513,19.865
			c0.088-0.088,0.231-0.088,0.319,0c0.088,0.088,0.088,0.23,0,0.318c-0.088,0.089-0.231,0.089-0.319,0
			C21.426,20.095,21.426,19.953,21.513,19.865z M20.734,19.119c0.066-0.067,0.173-0.067,0.238,0c0.066,0.065,0.066,0.172,0,0.238
			c-0.065,0.066-0.173,0.066-0.238,0C20.668,19.291,20.668,19.185,20.734,19.119z M19.94,18.308c0.065-0.064,0.172-0.064,0.237,0
			c0.066,0.066,0.066,0.172,0,0.237c-0.065,0.066-0.171,0.066-0.237,0C19.875,18.479,19.875,18.373,19.94,18.308z M19.166,17.534
			c0.066-0.066,0.172-0.066,0.237,0c0.065,0.065,0.065,0.172,0,0.237c-0.066,0.066-0.171,0.066-0.237,0
			C19.101,17.706,19.101,17.6,19.166,17.534z M18.351,16.719c0.066-0.066,0.172-0.066,0.237,0c0.066,0.066,0.066,0.172,0.001,0.236
			c-0.066,0.066-0.172,0.066-0.237,0C18.285,16.891,18.285,16.785,18.351,16.719z M17.578,15.946c0.065-0.066,0.171-0.066,0.237,0
			c0.065,0.066,0.065,0.17,0,0.236c-0.066,0.066-0.172,0.066-0.237,0C17.512,16.116,17.512,16.011,17.578,15.946z M16.762,15.129
			c0.066-0.066,0.171-0.066,0.237,0c0.066,0.066,0.066,0.172,0,0.237c-0.065,0.065-0.171,0.065-0.237,0
			C16.696,15.301,16.696,15.195,16.762,15.129z M15.179,13.783c-0.066-0.066-0.066-0.172,0-0.236c0.065-0.065,0.171-0.065,0.237,0
			c0.065,0.064,0.065,0.171,0,0.236C15.35,13.848,15.243,13.848,15.179,13.783z M15.974,14.342c0.066-0.066,0.172-0.066,0.237,0
			c0.066,0.066,0.066,0.17,0,0.236c-0.065,0.066-0.171,0.066-0.237,0C15.909,14.513,15.909,14.408,15.974,14.342z M25.145,23.49
			c-0.173,0.172-0.452,0.172-0.624,0c-0.173-0.172-0.173-0.451,0-0.623c0.172-0.173,0.451-0.173,0.624,0
			C25.315,23.039,25.315,23.318,25.145,23.49z M10.029,10.009c-0.172,0.172-0.451,0.172-0.623,0c-0.172-0.171-0.172-0.451,0-0.624
			c0.172-0.172,0.451-0.172,0.623,0C10.201,9.558,10.201,9.837,10.029,10.009z M22.97,22.932c0.154-0.153,0.403-0.153,0.557,0
			c0.154,0.153,0.154,0.403,0,0.558c-0.154,0.153-0.403,0.153-0.557,0C22.816,23.334,22.816,23.084,22.97,22.932z M10.811,10.773
			c-0.153,0.153-0.403,0.153-0.557,0c-0.154-0.155-0.154-0.404,0-0.557c0.154-0.154,0.403-0.154,0.557,0
			C10.965,10.369,10.965,10.619,10.811,10.773z M11.57,11.536c-0.139,0.138-0.365,0.138-0.504,0c-0.139-0.138-0.139-0.364,0-0.504
			c0.14-0.138,0.365-0.138,0.504,0C11.71,11.171,11.71,11.397,11.57,11.536z M22.193,22.158c0.14-0.138,0.365-0.138,0.504,0
			c0.14,0.14,0.14,0.366,0,0.504c-0.139,0.14-0.364,0.14-0.504,0C22.054,22.524,22.054,22.298,22.193,22.158z M21.445,21.409
			c0.117-0.117,0.307-0.117,0.424,0c0.117,0.117,0.117,0.308,0,0.425c-0.117,0.116-0.307,0.116-0.424,0
			C21.328,21.717,21.328,21.527,21.445,21.409z M12.334,12.298c-0.117,0.117-0.306,0.117-0.424,0c-0.117-0.117-0.117-0.306,0-0.424
			c0.117-0.117,0.306-0.117,0.424,0C12.451,11.991,12.451,12.18,12.334,12.298z M13.066,13.039c-0.088,0.088-0.231,0.088-0.319,0
			c-0.088-0.089-0.088-0.231,0-0.319c0.088-0.088,0.231-0.088,0.319,0C13.154,12.808,13.154,12.95,13.066,13.039z M20.703,20.676
			c0.088-0.088,0.231-0.088,0.319,0c0.088,0.088,0.088,0.23,0,0.317c-0.088,0.089-0.231,0.089-0.319,0
			C20.615,20.905,20.615,20.763,20.703,20.676z M19.936,19.916c0.066-0.065,0.173-0.065,0.239,0c0.065,0.066,0.065,0.173,0,0.238
			c-0.066,0.067-0.173,0.067-0.239,0C19.87,20.089,19.87,19.981,19.936,19.916z M19.14,19.109c0.066-0.066,0.171-0.066,0.237,0
			c0.065,0.064,0.065,0.171,0,0.236c-0.066,0.066-0.171,0.066-0.237,0C19.074,19.28,19.074,19.174,19.14,19.109z M18.366,18.335
			c0.066-0.066,0.171-0.066,0.237,0c0.066,0.066,0.066,0.172,0,0.237c-0.065,0.066-0.171,0.066-0.237,0
			C18.301,18.506,18.301,18.4,18.366,18.335z M17.55,17.519c0.065-0.065,0.172-0.065,0.237,0c0.066,0.064,0.066,0.172,0,0.237
			c-0.065,0.064-0.171,0.064-0.237,0C17.485,17.691,17.485,17.584,17.55,17.519z M16.777,16.746c0.066-0.066,0.171-0.066,0.237,0
			c0.065,0.066,0.065,0.172,0,0.236c-0.066,0.066-0.171,0.066-0.237,0C16.712,16.918,16.712,16.812,16.777,16.746z M15.961,15.93
			c0.066-0.066,0.171-0.066,0.237,0c0.066,0.065,0.066,0.172,0,0.237c-0.066,0.066-0.171,0.066-0.237,0
			C15.896,16.101,15.896,15.995,15.961,15.93z M14.378,14.583c-0.066-0.066-0.066-0.17,0-0.236c0.066-0.066,0.171-0.066,0.236,0
			c0.066,0.066,0.066,0.17,0,0.236C14.549,14.649,14.444,14.649,14.378,14.583z M15.174,15.143c0.065-0.066,0.172-0.066,0.237,0
			c0.066,0.066,0.066,0.171,0,0.236c-0.065,0.066-0.171,0.066-0.237,0C15.108,15.313,15.108,15.208,15.174,15.143z M24.327,24.306
			c-0.172,0.173-0.451,0.173-0.623,0c-0.173-0.172-0.173-0.451,0-0.624c0.171-0.17,0.45-0.17,0.623,0
			C24.499,23.855,24.499,24.135,24.327,24.306z M9.237,10.8c-0.173,0.172-0.452,0.172-0.623,0c-0.172-0.172-0.172-0.451,0-0.624
			c0.172-0.172,0.451-0.172,0.623,0C9.408,10.35,9.408,10.629,9.237,10.8z M22.168,23.733c0.154-0.153,0.404-0.153,0.557,0
			c0.155,0.154,0.155,0.404,0,0.557c-0.153,0.154-0.402,0.154-0.557,0C22.015,24.137,22.015,23.887,22.168,23.733z M10.009,11.575
			c-0.154,0.153-0.403,0.153-0.557,0c-0.154-0.154-0.154-0.404,0-0.557c0.153-0.155,0.403-0.155,0.557,0
			C10.163,11.171,10.163,11.421,10.009,11.575z M10.773,12.332c-0.138,0.138-0.364,0.138-0.504,0c-0.138-0.14-0.138-0.366,0-0.504
			c0.14-0.14,0.366-0.14,0.504,0C10.913,11.967,10.913,12.193,10.773,12.332z M21.397,22.955c0.139-0.14,0.365-0.14,0.504,0
			c0.139,0.14,0.139,0.364,0,0.504c-0.139,0.14-0.365,0.14-0.504,0C21.258,23.319,21.258,23.095,21.397,22.955z M20.643,22.211
			c0.117-0.116,0.308-0.116,0.424,0c0.117,0.117,0.117,0.308,0,0.425c-0.116,0.117-0.306,0.117-0.424,0
			C20.526,22.519,20.526,22.329,20.643,22.211z M11.532,13.1c-0.117,0.117-0.307,0.117-0.424,0c-0.117-0.117-0.117-0.306,0-0.424
			c0.117-0.117,0.308-0.117,0.424,0C11.649,12.793,11.649,12.982,11.532,13.1z M12.266,13.838c-0.088,0.088-0.23,0.088-0.318,0
			c-0.088-0.088-0.088-0.23,0-0.319c0.088-0.088,0.23-0.088,0.318,0C12.354,13.609,12.354,13.751,12.266,13.838z M19.903,21.475
			c0.088-0.088,0.23-0.088,0.318,0c0.088,0.089,0.088,0.231,0,0.319c-0.088,0.088-0.231,0.088-0.318,0
			C19.815,21.706,19.815,21.564,19.903,21.475z M19.139,20.713c0.067-0.066,0.173-0.066,0.24,0c0.066,0.066,0.066,0.173,0,0.239
			c-0.067,0.067-0.173,0.067-0.24,0C19.073,20.886,19.073,20.778,19.139,20.713z M18.339,19.91c0.066-0.065,0.171-0.065,0.236,0
			c0.066,0.064,0.066,0.171,0,0.236c-0.065,0.065-0.17,0.065-0.236,0C18.274,20.08,18.274,19.974,18.339,19.91z M17.566,19.135
			c0.065-0.066,0.171-0.066,0.236,0c0.066,0.066,0.066,0.172,0,0.237c-0.066,0.066-0.171,0.066-0.236,0
			C17.5,19.307,17.5,19.201,17.566,19.135z M16.75,18.32c0.066-0.066,0.172-0.066,0.237,0c0.065,0.065,0.065,0.172,0,0.236
			c-0.066,0.065-0.172,0.065-0.237,0.001C16.685,18.492,16.685,18.385,16.75,18.32z M15.977,17.547c0.066-0.065,0.172-0.065,0.236,0
			c0.065,0.066,0.065,0.172,0,0.236c-0.065,0.065-0.171,0.065-0.236,0C15.911,17.718,15.911,17.612,15.977,17.547z M15.161,16.73
			c0.065-0.064,0.171-0.064,0.237,0c0.066,0.067,0.066,0.172,0,0.237c-0.066,0.066-0.172,0.066-0.237,0
			C15.095,16.902,15.095,16.797,15.161,16.73z M13.578,15.384c-0.066-0.066-0.066-0.17,0-0.236c0.066-0.066,0.171-0.066,0.237,0
			c0.065,0.066,0.065,0.17,0,0.236C13.749,15.449,13.643,15.449,13.578,15.384z M14.373,15.943c0.066-0.066,0.171-0.066,0.237,0
			c0.065,0.065,0.065,0.17,0,0.236c-0.065,0.067-0.171,0.067-0.237,0C14.307,16.114,14.307,16.009,14.373,15.943z M23.534,25.1
			c-0.172,0.171-0.45,0.171-0.623,0c-0.172-0.172-0.172-0.451,0-0.624c0.172-0.172,0.451-0.172,0.623,0
			C23.707,24.647,23.707,24.928,23.534,25.1z M8.437,11.6c-0.172,0.172-0.451,0.172-0.623,0c-0.173-0.172-0.173-0.451,0-0.623
			c0.172-0.173,0.451-0.173,0.623,0C8.609,11.149,8.609,11.428,8.437,11.6z M22.736,25.899c-0.172,0.172-0.451,0.172-0.623,0
			c-0.172-0.173-0.172-0.451,0-0.624c0.172-0.172,0.451-0.172,0.623,0C22.908,25.448,22.908,25.726,22.736,25.899z M9.211,12.373
			c-0.153,0.153-0.403,0.153-0.557,0c-0.154-0.154-0.154-0.404,0-0.557c0.154-0.154,0.403-0.154,0.557,0
			C9.365,11.969,9.365,12.219,9.211,12.373z M21.37,24.531c0.154-0.153,0.403-0.153,0.557,0c0.154,0.154,0.154,0.404,0,0.557
			c-0.154,0.154-0.403,0.154-0.557,0C21.217,24.935,21.217,24.686,21.37,24.531z M20.592,23.76c0.139-0.14,0.364-0.14,0.503,0
			c0.139,0.138,0.139,0.364,0,0.503c-0.139,0.14-0.365,0.14-0.503,0C20.452,24.125,20.452,23.899,20.592,23.76z M19.846,23.009
			c0.117-0.117,0.307-0.117,0.424,0c0.117,0.117,0.117,0.308,0,0.424c-0.117,0.117-0.306,0.117-0.424,0
			C19.728,23.317,19.728,23.127,19.846,23.009z M19.419,22.277c0.088,0.089,0.088,0.231,0,0.319c-0.088,0.088-0.23,0.088-0.318,0
			c-0.088-0.088-0.088-0.23,0-0.319C19.19,22.189,19.332,22.189,19.419,22.277z M15.949,19.121c0.066-0.066,0.171-0.066,0.237,0
			c0.065,0.066,0.065,0.17,0,0.236c-0.066,0.067-0.172,0.067-0.237,0C15.884,19.291,15.884,19.186,15.949,19.121z M13.013,16.184
			c-0.065,0.066-0.171,0.066-0.236,0c-0.065-0.065-0.065-0.17,0-0.236c0.066-0.066,0.171-0.066,0.236,0
			C13.079,16.014,13.079,16.119,13.013,16.184z M13.809,16.981c-0.065,0.064-0.171,0.064-0.237,0c-0.066-0.066-0.066-0.172,0-0.237
			c0.066-0.066,0.172-0.066,0.237,0C13.875,16.809,13.875,16.915,13.809,16.981z M15.413,18.347c0.065,0.064,0.065,0.17,0,0.237
			c-0.065,0.064-0.171,0.064-0.237,0c-0.066-0.067-0.066-0.173,0-0.237C15.242,18.282,15.348,18.282,15.413,18.347z M14.597,17.768
			c-0.065,0.066-0.171,0.066-0.237,0c-0.065-0.065-0.065-0.172,0-0.236c0.066-0.066,0.172-0.066,0.237,0
			C14.662,17.596,14.662,17.702,14.597,17.768z M11.147,14.322c0.088-0.089,0.23-0.089,0.318,0c0.088,0.088,0.088,0.23,0,0.317
			c-0.088,0.088-0.23,0.088-0.318,0C11.058,14.552,11.058,14.41,11.147,14.322z M9.465,13.136c-0.14-0.138-0.14-0.364,0-0.503
			c0.138-0.139,0.364-0.139,0.503,0c0.139,0.138,0.139,0.365,0,0.503C9.83,13.276,9.604,13.276,9.465,13.136z M10.31,13.474
			c0.117-0.117,0.306-0.117,0.424,0c0.117,0.117,0.117,0.306,0,0.425c-0.117,0.116-0.307,0.116-0.424,0
			C10.193,13.78,10.193,13.591,10.31,13.474z M17.668,22.44c-0.445,0.446-1.166,0.446-1.611,0c-0.445-0.445-0.445-1.165,0-1.611
			c0.445-0.445,1.166-0.445,1.611,0C18.113,21.275,18.113,21.995,17.668,22.44z M20.57,25.332c0.154-0.154,0.403-0.154,0.556,0
			c0.155,0.155,0.155,0.404,0,0.557c-0.153,0.153-0.403,0.153-0.556,0C20.416,25.735,20.416,25.486,20.57,25.332z M19.795,24.563
			c0.14-0.138,0.365-0.138,0.504,0c0.14,0.14,0.14,0.366,0,0.504c-0.139,0.14-0.364,0.14-0.504,0
			C19.656,24.929,19.656,24.703,19.795,24.563z M18.309,23.389c-0.088-0.088-0.088-0.231,0-0.319c0.088-0.088,0.23-0.088,0.317,0
			c0.088,0.088,0.088,0.231,0,0.319C18.539,23.476,18.397,23.476,18.309,23.389z M19.051,23.805c0.117-0.117,0.307-0.117,0.424,0
			c0.117,0.116,0.117,0.306,0,0.424c-0.117,0.117-0.308,0.117-0.424,0C18.934,24.111,18.934,23.921,19.051,23.805z M21.936,26.698
			c-0.172,0.172-0.451,0.172-0.623,0c-0.172-0.172-0.172-0.452,0-0.624c0.172-0.172,0.451-0.172,0.623,0
			C22.109,26.246,22.109,26.527,21.936,26.698z M21.127,27.507c-0.172,0.173-0.451,0.173-0.624,0c-0.172-0.171-0.172-0.451,0-0.623
			c0.173-0.173,0.452-0.173,0.624,0C21.298,27.057,21.298,27.337,21.127,27.507z M7.597,13.986c-0.154,0.154-0.404,0.154-0.557,0
			c-0.154-0.153-0.154-0.403,0-0.557c0.153-0.153,0.403-0.153,0.557,0C7.751,13.584,7.751,13.833,7.597,13.986z M8.369,14.738
			c-0.139,0.138-0.365,0.138-0.504,0c-0.139-0.14-0.139-0.366,0-0.504c0.139-0.14,0.365-0.14,0.504,0
			C8.508,14.372,8.508,14.598,8.369,14.738z M9.12,15.512c-0.117,0.117-0.307,0.117-0.424,0c-0.117-0.117-0.117-0.308,0-0.425
			c0.117-0.117,0.308-0.117,0.424,0C9.237,15.204,9.237,15.395,9.12,15.512z M9.863,16.251c-0.088,0.088-0.23,0.088-0.319,0
			c-0.088-0.089-0.088-0.231,0-0.319c0.088-0.088,0.231-0.088,0.319,0C9.951,16.02,9.951,16.162,9.863,16.251z M11.405,17.795
			c-0.066,0.066-0.172,0.066-0.238,0c-0.066-0.065-0.066-0.173,0-0.238c0.066-0.066,0.172-0.066,0.238,0
			C11.471,17.622,11.471,17.73,11.405,17.795z M12.198,18.588c-0.066,0.065-0.172,0.065-0.238,0c-0.066-0.067-0.066-0.173,0-0.24
			c0.066-0.066,0.172-0.066,0.238,0C12.264,18.415,12.264,18.521,12.198,18.588z M12.991,19.381c-0.065,0.065-0.172,0.065-0.238,0
			c-0.066-0.067-0.066-0.173,0-0.24c0.066-0.066,0.173-0.066,0.238,0C13.057,19.208,13.057,19.314,12.991,19.381z M13.784,20.173
			c-0.065,0.065-0.173,0.065-0.238,0c-0.066-0.066-0.066-0.172,0-0.239c0.066-0.066,0.173-0.066,0.238,0
			C13.85,20.001,13.85,20.108,13.784,20.173z M14.577,20.966c-0.066,0.067-0.173,0.067-0.238,0c-0.066-0.066-0.066-0.172,0-0.238
			c0.066-0.065,0.173-0.065,0.238,0C14.642,20.794,14.642,20.901,14.577,20.966z M17.819,24.206c-0.088,0.088-0.23,0.088-0.319,0
			c-0.088-0.088-0.088-0.231,0-0.319c0.088-0.088,0.23-0.088,0.319,0C17.906,23.975,17.906,24.118,17.819,24.206z M18.656,25.048
			c-0.117,0.117-0.308,0.117-0.425,0c-0.116-0.117-0.116-0.308,0-0.424c0.117-0.117,0.308-0.117,0.425,0
			C18.773,24.74,18.773,24.93,18.656,25.048z M20.313,26.146c0.154,0.154,0.154,0.404,0,0.557c-0.153,0.153-0.403,0.153-0.556,0
			c-0.154-0.153-0.154-0.403,0-0.557C19.91,25.991,20.159,25.991,20.313,26.146z M19.496,25.864c-0.139,0.138-0.366,0.138-0.504,0
			c-0.139-0.138-0.139-0.366,0-0.505c0.138-0.137,0.365-0.137,0.504,0C19.634,25.498,19.634,25.726,19.496,25.864z M6.205,12.585
			c0.172-0.172,0.451-0.172,0.623,0c0.173,0.173,0.173,0.452,0,0.624c-0.172,0.172-0.451,0.172-0.623,0
			C6.032,13.038,6.032,12.759,6.205,12.585z M8.411,13.172c-0.155,0.153-0.403,0.153-0.557,0c-0.154-0.153-0.154-0.403,0-0.557
			c0.154-0.153,0.403-0.153,0.557,0C8.565,12.77,8.565,13.019,8.411,13.172z M9.172,13.941c-0.14,0.14-0.365,0.14-0.504,0
			c-0.139-0.14-0.139-0.364,0-0.504c0.139-0.14,0.365-0.14,0.504,0C9.311,13.576,9.311,13.801,9.172,13.941z M9.94,14.693
			c-0.117,0.116-0.308,0.116-0.425,0c-0.117-0.117-0.117-0.308,0-0.425c0.117-0.117,0.308-0.117,0.425,0
			C10.057,14.385,10.057,14.576,9.94,14.693z M10.671,15.433c-0.088,0.088-0.23,0.088-0.318,0c-0.088-0.088-0.088-0.231,0-0.319
			c0.088-0.088,0.23-0.088,0.318,0C10.759,15.202,10.759,15.345,10.671,15.433z M12.213,16.985c-0.066,0.065-0.171,0.065-0.237,0
			c-0.065-0.066-0.065-0.171,0-0.236c0.066-0.066,0.171-0.066,0.237,0C12.279,16.814,12.279,16.919,12.213,16.985z M13.009,17.781
			c-0.066,0.064-0.171,0.064-0.237,0c-0.066-0.065-0.066-0.172,0-0.237c0.066-0.066,0.171-0.066,0.237,0
			C13.074,17.61,13.074,17.716,13.009,17.781z M13.796,18.568c-0.065,0.065-0.172,0.065-0.237,0c-0.066-0.066-0.066-0.172,0-0.236
			c0.065-0.067,0.171-0.067,0.237,0C13.862,18.397,13.862,18.503,13.796,18.568z M15.386,19.921c0.065,0.066,0.065,0.171,0,0.237
			c-0.066,0.064-0.172,0.064-0.237,0c-0.066-0.067-0.066-0.172,0-0.237C15.214,19.855,15.321,19.855,15.386,19.921z M14.612,19.384
			c-0.065,0.066-0.171,0.066-0.237,0c-0.066-0.066-0.066-0.172,0-0.236c0.065-0.066,0.172-0.066,0.237,0
			C14.677,19.212,14.677,19.318,14.612,19.384z M7.014,11.776c0.173-0.173,0.452-0.173,0.624,0c0.171,0.172,0.171,0.451,0,0.623
			c-0.172,0.173-0.451,0.173-0.624,0C6.842,12.227,6.842,11.948,7.014,11.776z M6.036,14.002c-0.172,0.171-0.451,0.171-0.624,0
			c-0.171-0.173-0.171-0.452,0-0.624c0.173-0.172,0.452-0.172,0.624,0C6.208,13.55,6.208,13.83,6.036,14.002z M18.972,26.931
			c0.154-0.154,0.403-0.154,0.557,0c0.153,0.153,0.153,0.403,0,0.556c-0.155,0.154-0.403,0.154-0.557,0
			C18.819,27.333,18.819,27.084,18.972,26.931z M6.813,14.771c-0.154,0.153-0.403,0.153-0.557,0c-0.153-0.154-0.153-0.404,0-0.557
			c0.154-0.154,0.403-0.154,0.557,0C6.967,14.367,6.967,14.616,6.813,14.771z M7.574,15.532c-0.139,0.138-0.364,0.138-0.504,0
			c-0.138-0.14-0.138-0.364,0-0.504c0.14-0.138,0.365-0.138,0.504,0C7.714,15.167,7.714,15.392,7.574,15.532z M18.197,26.154
			c0.139-0.138,0.365-0.138,0.503,0c0.14,0.14,0.14,0.365,0,0.504c-0.138,0.14-0.364,0.14-0.503,0
			C18.058,26.519,18.058,26.294,18.197,26.154z M17.445,25.408c0.117-0.116,0.308-0.116,0.425,0c0.117,0.117,0.117,0.307,0,0.425
			c-0.117,0.117-0.308,0.117-0.425,0C17.329,25.716,17.329,25.526,17.445,25.408z M8.334,16.298c-0.117,0.117-0.307,0.117-0.424,0
			c-0.117-0.117-0.117-0.308,0-0.425c0.117-0.116,0.307-0.116,0.424,0C8.451,15.99,8.451,16.18,8.334,16.298z M9.069,17.036
			c-0.088,0.088-0.231,0.088-0.319,0c-0.088-0.088-0.088-0.231,0-0.317c0.088-0.089,0.23-0.089,0.319,0
			C9.156,16.806,9.156,16.949,9.069,17.036z M9.861,17.83c-0.088,0.088-0.23,0.088-0.318,0c-0.088-0.088-0.088-0.231,0-0.319
			c0.088-0.088,0.23-0.088,0.318,0C9.949,17.598,9.949,17.742,9.861,17.83z M10.654,18.623c-0.088,0.088-0.23,0.088-0.318,0
			c-0.088-0.088-0.088-0.231,0-0.319c0.088-0.088,0.23-0.088,0.318,0C10.742,18.392,10.742,18.535,10.654,18.623z M11.45,19.418
			c-0.088,0.088-0.231,0.088-0.318,0c-0.088-0.088-0.088-0.231,0-0.319c0.088-0.088,0.23-0.088,0.318,0
			C11.538,19.187,11.538,19.33,11.45,19.418z M12.243,20.211c-0.088,0.088-0.23,0.088-0.318,0c-0.088-0.089-0.088-0.231,0-0.319
			c0.088-0.088,0.23-0.088,0.318,0C12.33,19.98,12.33,20.122,12.243,20.211z M13.043,21.01c-0.088,0.088-0.23,0.088-0.319,0
			c-0.088-0.088-0.088-0.23,0-0.317c0.088-0.089,0.231-0.089,0.319,0C13.13,20.781,13.13,20.923,13.043,21.01z M13.84,21.807
			c-0.088,0.088-0.231,0.088-0.319,0c-0.088-0.089-0.088-0.231,0-0.319c0.088-0.088,0.231-0.088,0.319,0
			C13.927,21.576,13.927,21.718,13.84,21.807z M14.635,22.603c-0.088,0.089-0.231,0.089-0.319,0c-0.088-0.088-0.088-0.231,0-0.319
			c0.088-0.087,0.231-0.087,0.319,0C14.723,22.372,14.723,22.515,14.635,22.603z M15.423,23.39c-0.089,0.089-0.231,0.089-0.318,0
			c-0.088-0.088-0.088-0.23,0-0.317c0.088-0.088,0.23-0.088,0.318,0C15.51,23.16,15.51,23.302,15.423,23.39z M17.023,24.673
			c0.088,0.089,0.088,0.231,0,0.319c-0.088,0.088-0.23,0.088-0.318,0c-0.088-0.088-0.088-0.23,0-0.319
			C16.793,24.585,16.935,24.585,17.023,24.673z M16.22,24.188c-0.088,0.087-0.231,0.087-0.319,0c-0.088-0.089-0.088-0.23,0-0.319
			c0.088-0.087,0.231-0.087,0.319,0C16.308,23.958,16.308,24.099,16.22,24.188z M20.334,28.3c-0.172,0.172-0.452,0.172-0.623,0
			c-0.172-0.173-0.172-0.451,0-0.624c0.172-0.172,0.451-0.172,0.623,0C20.506,27.85,20.506,28.127,20.334,28.3z M5.229,14.808
			c-0.172,0.172-0.451,0.172-0.623,0c-0.172-0.171-0.172-0.451,0-0.624c0.172-0.172,0.452-0.172,0.623,0
			C5.402,14.357,5.402,14.636,5.229,14.808z M18.162,27.741c0.153-0.154,0.403-0.154,0.557,0c0.153,0.153,0.153,0.403,0,0.557
			c-0.154,0.153-0.404,0.153-0.557,0C18.008,28.144,18.008,27.894,18.162,27.741z M6.003,15.581c-0.154,0.153-0.403,0.153-0.557,0
			c-0.153-0.154-0.153-0.404,0-0.557c0.154-0.153,0.403-0.153,0.557,0C6.157,15.177,6.157,15.427,6.003,15.581z M6.757,16.348
			c-0.139,0.14-0.365,0.14-0.504,0c-0.139-0.138-0.139-0.364,0-0.503c0.139-0.14,0.365-0.14,0.504,0
			C6.896,15.984,6.896,16.21,6.757,16.348z M17.379,26.973c0.139-0.14,0.365-0.14,0.504,0c0.139,0.14,0.139,0.364,0,0.504
			c-0.139,0.14-0.365,0.14-0.504,0C17.24,27.337,17.24,27.112,17.379,26.973z M15.831,25.423c0.117-0.116,0.308-0.116,0.425,0
			c0.117,0.119,0.117,0.308,0,0.425c-0.117,0.117-0.308,0.117-0.425,0C15.714,25.731,15.714,25.542,15.831,25.423z M15.042,24.635
			c0.117-0.117,0.308-0.117,0.425,0c0.117,0.116,0.117,0.306,0,0.424c-0.117,0.117-0.308,0.117-0.425,0
			C14.924,24.941,14.924,24.751,15.042,24.635z M14.245,23.838c0.117-0.117,0.308-0.117,0.425,0c0.117,0.116,0.117,0.306,0,0.424
			c-0.117,0.117-0.307,0.117-0.425,0C14.127,24.144,14.127,23.954,14.245,23.838z M13.451,23.043c0.117-0.116,0.307-0.116,0.424,0
			c0.117,0.119,0.117,0.308,0,0.425c-0.117,0.117-0.308,0.117-0.424,0C13.334,23.35,13.334,23.161,13.451,23.043z M12.654,22.246
			c0.117-0.117,0.306-0.117,0.424,0c0.117,0.117,0.117,0.308,0,0.425c-0.117,0.116-0.307,0.116-0.424,0
			C12.536,22.553,12.536,22.363,12.654,22.246z M11.863,21.457c0.117-0.117,0.308-0.117,0.425,0c0.117,0.117,0.117,0.306,0,0.424
			c-0.117,0.117-0.308,0.117-0.425,0C11.746,21.763,11.746,21.574,11.863,21.457z M11.066,20.658c0.117-0.117,0.307-0.117,0.424,0
			c0.117,0.117,0.117,0.308,0,0.425c-0.117,0.117-0.307,0.117-0.424,0C10.949,20.966,10.949,20.776,11.066,20.658z M9.471,19.064
			c0.117-0.117,0.307-0.117,0.424,0c0.117,0.116,0.117,0.306,0,0.424c-0.117,0.117-0.308,0.117-0.424,0
			C9.353,19.37,9.353,19.18,9.471,19.064z M8.68,18.273c0.117-0.119,0.307-0.119,0.424,0c0.117,0.117,0.117,0.306,0,0.424
			c-0.117,0.117-0.307,0.117-0.424,0C8.563,18.579,8.563,18.39,8.68,18.273z M10.699,19.865c0.117,0.117,0.117,0.308,0,0.424
			c-0.117,0.117-0.307,0.117-0.424,0c-0.117-0.116-0.117-0.306,0-0.424C10.392,19.748,10.582,19.748,10.699,19.865z M7.889,17.482
			c0.117-0.117,0.307-0.117,0.425,0c0.117,0.116,0.117,0.308,0,0.424c-0.117,0.117-0.308,0.117-0.425,0
			C7.772,17.79,7.772,17.598,7.889,17.482z M17.061,26.215c0.117,0.118,0.117,0.307,0,0.424c-0.117,0.117-0.308,0.117-0.425,0
			c-0.117-0.117-0.117-0.306,0-0.424C16.754,26.098,16.944,26.098,17.061,26.215z M7.525,17.104c-0.117,0.116-0.307,0.116-0.424,0
			c-0.117-0.118-0.117-0.307,0-0.425c0.117-0.117,0.307-0.117,0.424,0C7.642,16.797,7.642,16.986,7.525,17.104z M19.528,29.106
			c-0.173,0.172-0.451,0.172-0.624,0c-0.172-0.17-0.172-0.451,0-0.623c0.172-0.172,0.451-0.172,0.624,0
			C19.7,28.655,19.7,28.936,19.528,29.106z M4.41,15.627c-0.172,0.172-0.451,0.172-0.623,0c-0.172-0.172-0.172-0.452,0-0.624
			c0.172-0.172,0.451-0.172,0.623,0C4.583,15.175,4.583,15.455,4.41,15.627z M17.348,28.554c0.154-0.153,0.403-0.153,0.557,0
			c0.153,0.154,0.153,0.404,0,0.558c-0.155,0.153-0.403,0.153-0.557,0C17.194,28.958,17.194,28.708,17.348,28.554z M5.189,16.395
			c-0.154,0.153-0.403,0.153-0.557,0c-0.153-0.154-0.153-0.404,0-0.557c0.154-0.153,0.403-0.153,0.557,0
			C5.343,15.991,5.343,16.241,5.189,16.395z M5.939,17.167c-0.139,0.138-0.365,0.138-0.503,0c-0.14-0.14-0.14-0.364,0-0.504
			c0.139-0.14,0.364-0.14,0.503,0C6.078,16.803,6.078,17.028,5.939,17.167z M6.738,17.964c-0.14,0.139-0.365,0.139-0.504,0
			c-0.14-0.138-0.14-0.365,0-0.503c0.139-0.14,0.364-0.14,0.504,0C6.876,17.6,6.876,17.826,6.738,17.964z M7.532,18.76
			c-0.139,0.14-0.364,0.14-0.504,0c-0.139-0.14-0.139-0.364,0-0.504c0.14-0.14,0.365-0.14,0.504,0
			C7.671,18.395,7.671,18.62,7.532,18.76z M8.322,19.55c-0.138,0.14-0.364,0.14-0.503,0c-0.139-0.138-0.139-0.364,0-0.504
			c0.139-0.138,0.365-0.138,0.503,0C8.462,19.186,8.462,19.412,8.322,19.55z M9.114,20.341c-0.14,0.14-0.365,0.14-0.504,0
			c-0.14-0.138-0.14-0.365,0-0.504c0.139-0.138,0.364-0.138,0.504,0C9.253,19.976,9.253,20.203,9.114,20.341z M9.923,21.15
			c-0.139,0.14-0.365,0.14-0.504,0c-0.139-0.14-0.139-0.364,0-0.504c0.139-0.138,0.365-0.138,0.504,0
			C10.062,20.786,10.062,21.01,9.923,21.15z M10.709,21.936c-0.139,0.14-0.364,0.14-0.503,0c-0.139-0.138-0.139-0.364,0-0.504
			c0.139-0.138,0.365-0.138,0.503,0C10.847,21.571,10.847,21.798,10.709,21.936z M11.514,22.742c-0.139,0.137-0.365,0.137-0.504,0
			c-0.139-0.14-0.139-0.366,0-0.504c0.139-0.14,0.365-0.14,0.504,0C11.653,22.377,11.653,22.603,11.514,22.742z M12.305,23.533
			c-0.14,0.138-0.365,0.138-0.504,0c-0.14-0.14-0.14-0.366,0-0.504c0.139-0.138,0.364-0.138,0.504,0
			C12.444,23.167,12.444,23.393,12.305,23.533z M13.098,24.326c-0.14,0.138-0.365,0.138-0.504,0c-0.14-0.139-0.14-0.366,0-0.504
			c0.139-0.14,0.365-0.14,0.504,0C13.237,23.96,13.237,24.187,13.098,24.326z M13.893,25.12c-0.139,0.14-0.365,0.14-0.504,0
			c-0.139-0.14-0.139-0.365,0-0.504c0.14-0.138,0.365-0.138,0.504,0C14.032,24.756,14.032,24.981,13.893,25.12z M14.686,25.912
			c-0.14,0.14-0.364,0.14-0.504,0c-0.139-0.138-0.14-0.365,0-0.504c0.14-0.137,0.364-0.137,0.504,0
			C14.825,25.548,14.825,25.774,14.686,25.912z M15.484,26.71c-0.14,0.14-0.365,0.14-0.504,0c-0.14-0.137-0.14-0.364,0-0.504
			c0.139-0.137,0.364-0.137,0.504,0C15.623,26.346,15.623,26.574,15.484,26.71z M17.066,27.79c0.138,0.138,0.138,0.364,0,0.504
			c-0.14,0.138-0.364,0.138-0.504,0c-0.139-0.14-0.139-0.366,0-0.504C16.702,27.651,16.927,27.651,17.066,27.79z M16.277,27.505
			c-0.14,0.138-0.365,0.138-0.504,0c-0.14-0.14-0.14-0.366,0-0.505c0.139-0.138,0.364-0.138,0.504,0
			C16.416,27.139,16.416,27.365,16.277,27.505z M18.709,29.926c-0.172,0.172-0.451,0.172-0.624,0c-0.172-0.173-0.172-0.452,0-0.625
			c0.173-0.172,0.452-0.172,0.624,0C18.881,29.474,18.881,29.753,18.709,29.926z M3.627,16.41c-0.172,0.172-0.451,0.172-0.623,0
			c-0.172-0.171-0.172-0.451,0-0.624c0.172-0.172,0.451-0.172,0.623,0C3.799,15.959,3.799,16.239,3.627,16.41z M16.55,29.353
			c0.153-0.154,0.403-0.154,0.557,0c0.153,0.155,0.153,0.403,0,0.557c-0.154,0.154-0.404,0.154-0.557,0
			C16.395,29.756,16.395,29.508,16.55,29.353z M15.756,28.56c0.154-0.154,0.403-0.154,0.557,0c0.154,0.153,0.154,0.403,0,0.557
			c-0.153,0.153-0.403,0.153-0.557,0C15.602,28.963,15.602,28.713,15.756,28.56z M7.545,20.336c-0.139,0.14-0.364,0.14-0.503,0
			c-0.139-0.138-0.139-0.364,0-0.504c0.139-0.138,0.364-0.138,0.503,0C7.685,19.972,7.685,20.198,7.545,20.336z M8.337,21.128
			c-0.14,0.138-0.365,0.138-0.504,0c-0.14-0.14-0.14-0.364,0-0.504c0.139-0.138,0.364-0.138,0.504,0
			C8.476,20.763,8.476,20.988,8.337,21.128z M9.137,21.928c-0.138,0.137-0.364,0.137-0.503,0c-0.139-0.14-0.139-0.364,0-0.504
			c0.139-0.14,0.365-0.14,0.503,0C9.276,21.564,9.276,21.789,9.137,21.928z M9.935,22.725c-0.139,0.14-0.365,0.14-0.504,0
			c-0.139-0.138-0.139-0.364,0-0.504c0.139-0.138,0.365-0.138,0.504,0C10.074,22.361,10.074,22.587,9.935,22.725z M11.525,24.315
			c-0.14,0.14-0.364,0.14-0.504,0c-0.138-0.14-0.138-0.365,0-0.504c0.14-0.14,0.364-0.14,0.504,0
			C11.663,23.951,11.663,24.175,11.525,24.315z M12.321,25.112c-0.139,0.138-0.365,0.138-0.503,0c-0.14-0.139-0.14-0.366,0-0.504
			c0.139-0.139,0.364-0.139,0.503,0C12.46,24.746,12.46,24.972,12.321,25.112z M13.111,25.901c-0.14,0.14-0.365,0.14-0.504,0
			c-0.14-0.14-0.14-0.364,0-0.504c0.139-0.14,0.364-0.14,0.504,0C13.249,25.537,13.249,25.762,13.111,25.901z M13.902,26.695
			c-0.138,0.138-0.364,0.138-0.503,0c-0.14-0.14-0.14-0.366,0-0.505c0.138-0.14,0.365-0.14,0.503,0
			C14.042,26.329,14.042,26.555,13.902,26.695z M10.214,23.516c-0.139-0.14-0.139-0.365,0-0.504c0.14-0.14,0.365-0.14,0.504,0
			c0.14,0.14,0.14,0.364,0,0.504C10.579,23.655,10.353,23.655,10.214,23.516z M15.488,27.775c0.14,0.14,0.14,0.365,0,0.504
			c-0.139,0.14-0.364,0.14-0.504,0c-0.139-0.14-0.139-0.364,0-0.504C15.124,27.636,15.35,27.636,15.488,27.775z M14.698,27.489
			c-0.14,0.14-0.365,0.14-0.504,0c-0.14-0.14-0.14-0.364,0-0.504c0.139-0.14,0.364-0.14,0.504,0
			C14.837,27.125,14.837,27.349,14.698,27.489z M6.214,19.017c0.154-0.153,0.403-0.153,0.557,0c0.154,0.154,0.154,0.404,0,0.558
			c-0.153,0.153-0.403,0.153-0.557,0C6.061,19.421,6.061,19.171,6.214,19.017z M5.426,18.229c0.154-0.155,0.403-0.155,0.557,0
			c0.154,0.153,0.154,0.403,0,0.557c-0.154,0.153-0.403,0.153-0.557,0C5.272,18.631,5.272,18.382,5.426,18.229z M3.833,17.193
			c-0.154-0.154-0.154-0.403,0-0.557c0.154-0.153,0.403-0.153,0.557,0c0.154,0.154,0.154,0.403,0,0.557
			C4.237,17.348,3.988,17.348,3.833,17.193z M4.629,17.432c0.155-0.153,0.404-0.153,0.557,0c0.154,0.154,0.154,0.404,0,0.557
			c-0.153,0.154-0.403,0.154-0.557,0C4.476,17.836,4.476,17.586,4.629,17.432z M17.926,30.708c-0.173,0.173-0.452,0.173-0.624,0
			c-0.172-0.172-0.172-0.451,0-0.623c0.172-0.172,0.451-0.172,0.624,0C18.098,30.257,18.098,30.536,17.926,30.708z M2.815,17.222
			c-0.172,0.172-0.451,0.172-0.622,0c-0.173-0.172-0.173-0.451,0-0.624c0.171-0.172,0.451-0.172,0.622,0
			C2.987,16.771,2.987,17.05,2.815,17.222z M3.619,18.025c-0.172,0.173-0.452,0.173-0.623,0c-0.172-0.172-0.172-0.451,0-0.623
			c0.172-0.172,0.451-0.172,0.623,0C3.791,17.574,3.791,17.853,3.619,18.025z M4.419,18.825c-0.172,0.171-0.451,0.171-0.623,0
			c-0.173-0.173-0.173-0.451,0-0.624c0.172-0.172,0.451-0.172,0.623,0C4.591,18.374,4.591,18.652,4.419,18.825z M5.216,19.622
			c-0.172,0.173-0.451,0.173-0.623,0c-0.172-0.172-0.172-0.451,0-0.623c0.172-0.172,0.451-0.172,0.623,0
			C5.389,19.171,5.389,19.45,5.216,19.622z M6.004,20.41c-0.172,0.172-0.451,0.172-0.622,0c-0.173-0.172-0.173-0.451,0-0.623
			c0.172-0.173,0.451-0.173,0.622,0C6.176,19.959,6.176,20.238,6.004,20.41z M6.792,21.197c-0.173,0.173-0.452,0.173-0.624,0
			c-0.172-0.17-0.172-0.45,0.001-0.623c0.172-0.172,0.45-0.172,0.623,0C6.964,20.747,6.964,21.027,6.792,21.197z M7.592,22
			c-0.172,0.172-0.451,0.172-0.623,0c-0.172-0.173-0.172-0.452,0-0.625c0.172-0.172,0.451-0.172,0.623,0
			C7.764,21.548,7.764,21.827,7.592,22z M8.39,22.797c-0.172,0.172-0.452,0.172-0.623,0c-0.172-0.173-0.172-0.452,0-0.624
			C7.938,22,8.217,22,8.39,22.173C8.562,22.345,8.562,22.624,8.39,22.797z M9.182,23.588c-0.172,0.172-0.451,0.172-0.624,0
			c-0.172-0.172-0.172-0.452,0-0.624c0.173-0.172,0.452-0.172,0.624,0C9.354,23.136,9.354,23.417,9.182,23.588z M9.978,24.384
			c-0.172,0.172-0.451,0.172-0.623,0c-0.172-0.172-0.172-0.452,0-0.623c0.172-0.173,0.451-0.173,0.623,0
			C10.149,23.932,10.149,24.212,9.978,24.384z M10.775,25.181c-0.172,0.173-0.451,0.173-0.623,0c-0.173-0.172-0.173-0.452,0-0.624
			c0.172-0.171,0.451-0.171,0.623,0C10.947,24.729,10.947,25.009,10.775,25.181z M11.57,25.976c-0.172,0.172-0.451,0.172-0.624,0
			c-0.172-0.173-0.172-0.451,0-0.622c0.173-0.173,0.452-0.173,0.624,0C11.742,25.526,11.742,25.803,11.57,25.976z M12.362,26.769
			c-0.173,0.172-0.452,0.172-0.624,0c-0.172-0.173-0.172-0.452,0-0.624c0.172-0.172,0.451-0.172,0.624,0
			C12.534,26.317,12.534,26.596,12.362,26.769z M13.155,27.562c-0.173,0.172-0.452,0.172-0.624,0c-0.172-0.173-0.172-0.451,0-0.624
			c0.172-0.173,0.451-0.173,0.624,0C13.327,27.111,13.327,27.389,13.155,27.562z M13.949,28.356c-0.172,0.172-0.451,0.172-0.624,0
			c-0.172-0.173-0.172-0.451,0-0.624c0.173-0.172,0.452-0.172,0.624,0C14.121,27.905,14.121,28.183,13.949,28.356z M14.745,29.15
			c-0.173,0.173-0.452,0.173-0.624,0c-0.172-0.17-0.172-0.451,0-0.623c0.172-0.172,0.451-0.172,0.624,0
			C14.917,28.699,14.917,28.98,14.745,29.15z M15.536,29.944c-0.172,0.17-0.451,0.17-0.623,0c-0.172-0.173-0.172-0.452,0-0.624
			c0.172-0.173,0.451-0.173,0.623,0C15.708,29.491,15.708,29.771,15.536,29.944z M16.332,30.74c-0.172,0.171-0.451,0.171-0.623,0
			c-0.173-0.173-0.173-0.452,0-0.625c0.172-0.172,0.451-0.172,0.623,0C16.505,30.288,16.505,30.567,16.332,30.74z M17.124,31.53
			c-0.173,0.174-0.451,0.174-0.624,0c-0.172-0.172-0.172-0.451,0-0.623c0.172-0.172,0.451-0.172,0.624,0
			C17.296,31.079,17.296,31.358,17.124,31.53z M2.854,18.852c-0.19,0.191-0.499,0.191-0.689,0c-0.19-0.19-0.19-0.498,0-0.689
			c0.19-0.19,0.499-0.19,0.689,0C3.045,18.355,3.045,18.662,2.854,18.852z M3.649,19.648c-0.191,0.19-0.499,0.19-0.69,0
			c-0.19-0.19-0.19-0.499,0-0.69c0.191-0.19,0.499-0.19,0.69,0C3.839,19.149,3.839,19.458,3.649,19.648z M4.444,20.442
			c-0.191,0.19-0.499,0.19-0.69,0c-0.191-0.19-0.191-0.499,0-0.689c0.191-0.19,0.499-0.19,0.69,0
			C4.634,19.943,4.634,20.252,4.444,20.442z M5.238,21.237c-0.19,0.191-0.499,0.191-0.689,0c-0.19-0.19-0.19-0.499,0-0.689
			c0.19-0.19,0.499-0.19,0.689,0C5.428,20.738,5.428,21.046,5.238,21.237z M6.032,22.032c-0.19,0.189-0.499,0.189-0.689,0
			c-0.19-0.192-0.19-0.5,0-0.691c0.19-0.19,0.499-0.19,0.689,0C6.222,21.532,6.222,21.841,6.032,22.032z M6.827,22.826
			c-0.191,0.19-0.5,0.19-0.69,0c-0.19-0.19-0.19-0.5,0-0.689c0.19-0.191,0.499-0.191,0.69,0C7.017,22.326,7.017,22.636,6.827,22.826
			z M7.622,23.621c-0.191,0.19-0.499,0.19-0.689,0c-0.192-0.19-0.192-0.499,0-0.689c0.19-0.19,0.498-0.19,0.689,0
			C7.812,23.122,7.812,23.43,7.622,23.621z M8.416,24.415c-0.19,0.191-0.499,0.191-0.689,0c-0.19-0.19-0.19-0.499,0-0.689
			c0.19-0.19,0.499-0.19,0.689,0C8.607,23.916,8.607,24.225,8.416,24.415z M9.211,25.211c-0.19,0.19-0.499,0.19-0.689,0
			c-0.19-0.191-0.19-0.499,0-0.691c0.19-0.189,0.499-0.189,0.689,0C9.402,24.712,9.402,25.019,9.211,25.211z M10.006,26.005
			c-0.191,0.191-0.5,0.191-0.69,0c-0.191-0.191-0.191-0.499,0-0.689c0.19-0.19,0.499-0.19,0.69,0
			C10.196,25.506,10.196,25.814,10.006,26.005z M10.801,26.799c-0.19,0.19-0.499,0.19-0.689,0c-0.191-0.19-0.191-0.498,0-0.69
			c0.19-0.19,0.499-0.19,0.689,0C10.991,26.302,10.991,26.609,10.801,26.799z M11.595,27.594c-0.19,0.19-0.499,0.19-0.689,0
			c-0.19-0.19-0.19-0.499,0-0.689c0.19-0.19,0.499-0.19,0.689,0C11.785,27.095,11.785,27.404,11.595,27.594z M12.389,28.389
			c-0.19,0.19-0.499,0.19-0.689,0c-0.19-0.191-0.19-0.5,0-0.689c0.19-0.191,0.499-0.191,0.689,0
			C12.58,27.889,12.58,28.198,12.389,28.389z M13.184,29.182c-0.19,0.193-0.499,0.193-0.69,0c-0.19-0.189-0.19-0.498,0-0.689
			c0.191-0.189,0.5-0.189,0.69,0C13.375,28.685,13.375,28.993,13.184,29.182z M13.979,29.978c-0.19,0.191-0.499,0.191-0.689,0
			c-0.19-0.19-0.19-0.499,0-0.691c0.19-0.189,0.499-0.189,0.689,0C14.169,29.479,14.169,29.788,13.979,29.978z M14.773,30.774
			c-0.19,0.189-0.499,0.189-0.689,0c-0.19-0.191-0.19-0.5,0-0.691c0.19-0.189,0.499-0.189,0.689,0
			C14.964,30.273,14.964,30.582,14.773,30.774z M15.568,31.568c-0.19,0.19-0.499,0.19-0.69,0c-0.19-0.192-0.19-0.499,0-0.689
			c0.191-0.19,0.5-0.19,0.69,0C15.759,31.069,15.759,31.376,15.568,31.568z M16.363,32.362c-0.19,0.19-0.499,0.19-0.69,0
			c-0.19-0.19-0.19-0.499,0-0.689c0.191-0.191,0.499-0.191,0.69,0C16.553,31.863,16.553,32.172,16.363,32.362z M33.065,17.211
			c-0.182,0.089-0.406,0.058-0.558-0.092c-0.19-0.19-0.19-0.499,0-0.689c0.155-0.154,0.385-0.184,0.568-0.089
			c-0.085-0.134-0.121-0.291-0.105-0.444l-0.034-0.035c-0.153,0.015-0.31-0.02-0.445-0.106c0.094,0.183,0.066,0.414-0.089,0.568
			c-0.19,0.19-0.499,0.19-0.689,0c-0.19-0.191-0.19-0.499,0-0.691c0.154-0.153,0.386-0.183,0.568-0.088
			c-0.085-0.135-0.121-0.291-0.106-0.445l-0.038-0.037c-0.153,0.015-0.309-0.02-0.442-0.105c0.096,0.183,0.067,0.415-0.088,0.57
			c-0.19,0.19-0.499,0.19-0.69,0c-0.19-0.19-0.19-0.499,0-0.689c0.153-0.153,0.383-0.183,0.567-0.089
			c-0.088-0.135-0.124-0.293-0.109-0.446l-0.032-0.033c-0.153,0.016-0.31-0.02-0.444-0.106c0.095,0.184,0.066,0.416-0.088,0.57
			c-0.191,0.19-0.5,0.19-0.689,0c-0.192-0.19-0.192-0.499,0-0.689c0.153-0.154,0.383-0.184,0.567-0.089
			c-0.087-0.135-0.122-0.293-0.107-0.445l-0.033-0.033c-0.153,0.015-0.311-0.02-0.444-0.106c0.094,0.183,0.065,0.414-0.088,0.568
			c-0.191,0.19-0.5,0.19-0.69,0c-0.191-0.19-0.191-0.499,0-0.691c0.153-0.153,0.385-0.183,0.569-0.088
			c-0.087-0.135-0.122-0.292-0.106-0.443l-0.037-0.037c-0.152,0.016-0.309-0.02-0.443-0.105c0.094,0.183,0.065,0.415-0.088,0.568
			c-0.19,0.19-0.499,0.19-0.689,0c-0.19-0.19-0.19-0.499,0-0.689c0.153-0.153,0.384-0.183,0.568-0.088
			c-0.086-0.135-0.122-0.293-0.107-0.446l-0.036-0.037c-0.152,0.016-0.309-0.019-0.442-0.104c0.095,0.184,0.067,0.415-0.088,0.57
			c-0.19,0.19-0.499,0.19-0.69,0c-0.19-0.19-0.19-0.499,0-0.689c0.154-0.153,0.384-0.183,0.567-0.089
			c-0.087-0.135-0.122-0.293-0.107-0.447l-0.032-0.032c-0.154,0.015-0.31-0.02-0.444-0.106c0.095,0.184,0.066,0.415-0.088,0.57
			c-0.19,0.19-0.498,0.19-0.69,0c-0.19-0.19-0.19-0.499,0-0.691c0.155-0.153,0.385-0.182,0.568-0.088
			c-0.086-0.135-0.122-0.293-0.106-0.446l-0.033-0.032c-0.153,0.016-0.31-0.02-0.445-0.106c0.095,0.183,0.065,0.414-0.089,0.568
			c-0.19,0.19-0.499,0.19-0.689,0c-0.19-0.192-0.19-0.499,0-0.691c0.154-0.153,0.385-0.183,0.568-0.088
			c-0.085-0.135-0.121-0.291-0.105-0.445l-0.027-0.027c-0.156,0.016-0.315-0.021-0.451-0.109c0.093,0.183,0.063,0.411-0.09,0.563
			c-0.19,0.192-0.499,0.192-0.689,0c-0.19-0.19-0.19-0.499,0-0.689c0.155-0.155,0.389-0.184,0.573-0.087
			c-0.084-0.132-0.119-0.288-0.104-0.439L25.78,8.707c-0.151,0.015-0.308-0.02-0.442-0.106c0.095,0.184,0.066,0.416-0.088,0.57
			c-0.19,0.19-0.5,0.19-0.689,0c-0.191-0.19-0.191-0.499,0-0.689c0.153-0.154,0.383-0.183,0.566-0.089
			C25.04,8.258,25.004,8.1,25.019,7.946l-0.034-0.035c-0.151,0.015-0.308-0.02-0.442-0.105c0.096,0.184,0.067,0.416-0.087,0.57
			c-0.191,0.191-0.499,0.191-0.69,0c-0.191-0.19-0.191-0.498,0-0.689c0.153-0.154,0.383-0.183,0.566-0.09
			c-0.087-0.135-0.123-0.293-0.107-0.447l-0.035-0.034c-0.153,0.015-0.309-0.02-0.442-0.105c0.096,0.184,0.067,0.416-0.088,0.57
			c-0.19,0.19-0.498,0.19-0.689,0c-0.19-0.19-0.19-0.499,0-0.689c0.154-0.153,0.383-0.183,0.567-0.089
			c-0.087-0.135-0.123-0.293-0.108-0.447L23.4,6.326c-0.153,0.015-0.311-0.021-0.445-0.107c0.094,0.183,0.064,0.414-0.089,0.568
			c-0.19,0.19-0.499,0.19-0.689,0c-0.19-0.19-0.19-0.498,0-0.689c0.154-0.153,0.385-0.184,0.568-0.088
			c-0.085-0.134-0.121-0.291-0.106-0.444l-0.033-0.033c-0.154,0.015-0.311-0.02-0.446-0.107c0.094,0.183,0.064,0.413-0.089,0.567
			c-0.191,0.19-0.499,0.19-0.691,0c-0.19-0.19-0.19-0.499,0-0.689c0.155-0.154,0.387-0.184,0.571-0.088
			c-0.085-0.134-0.121-0.29-0.105-0.443l-0.04-0.04c-0.153,0.016-0.308-0.02-0.442-0.105c0.096,0.184,0.066,0.415-0.088,0.57
			c-0.191,0.191-0.5,0.191-0.69,0c-0.19-0.191-0.19-0.499,0-0.689c0.153-0.154,0.384-0.184,0.567-0.09
			c-0.087-0.134-0.123-0.292-0.108-0.446l-0.02-0.021c-0.157,0.016-0.318-0.021-0.453-0.111c0.091,0.183,0.061,0.41-0.092,0.563
			c-0.19,0.191-0.499,0.191-0.689,0c-0.19-0.191-0.19-0.5,0-0.69c0.156-0.156,0.39-0.184,0.575-0.085
			c-0.083-0.132-0.117-0.287-0.102-0.436l-0.044-0.045c-0.153,0.016-0.312-0.02-0.445-0.107c0.094,0.184,0.064,0.415-0.089,0.568
			c-0.19,0.19-0.499,0.19-0.689,0c-0.191-0.19-0.191-0.499,0-0.689c0.153-0.154,0.385-0.184,0.568-0.088
			C19.48,2.697,19.445,2.54,19.46,2.387l-0.037-0.038c-0.152,0.016-0.308-0.02-0.442-0.105c0.095,0.184,0.066,0.416-0.088,0.57
			c-0.19,0.191-0.499,0.191-0.689,0c-0.191-0.19-0.191-0.498,0-0.689c0.153-0.154,0.383-0.184,0.566-0.089
			c-0.087-0.135-0.122-0.293-0.108-0.447l-0.027-0.028c-0.151,0.018-0.308-0.014-0.442-0.095c0.086,0.181,0.054,0.403-0.095,0.554
			c-0.19,0.19-0.499,0.19-0.69,0c-0.19-0.191-0.19-0.5,0-0.691c0.15-0.149,0.372-0.181,0.552-0.095
			c-0.082-0.135-0.114-0.291-0.097-0.444l-0.029-0.029c-0.153,0.019-0.311-0.014-0.446-0.097c0.093,0.183,0.063,0.412-0.09,0.565
			c-0.19,0.19-0.499,0.19-0.69,0c-0.169-0.169-0.187-0.431-0.056-0.62c-0.14,0.108-0.31,0.156-0.478,0.143l-0.062,0.062
			c0.013,0.166-0.034,0.335-0.14,0.474c0.19-0.134,0.454-0.115,0.624,0.054c0.19,0.19,0.19,0.5,0,0.69c-0.19,0.19-0.499,0.19-0.69,0
			c-0.168-0.168-0.187-0.429-0.059-0.618c-0.14,0.109-0.311,0.158-0.479,0.145l-0.057,0.056c0.012,0.167-0.034,0.336-0.141,0.474
			c0.19-0.133,0.454-0.115,0.624,0.054c0.19,0.191,0.19,0.499,0,0.691c-0.19,0.19-0.499,0.19-0.689,0
			c-0.169-0.169-0.188-0.43-0.058-0.62c-0.14,0.11-0.311,0.158-0.479,0.145L14.406,2.42c0.013,0.166-0.033,0.334-0.139,0.472
			c0.19-0.135,0.455-0.117,0.626,0.054c0.19,0.19,0.19,0.498,0,0.689c-0.19,0.191-0.499,0.191-0.689,0
			c-0.168-0.167-0.188-0.427-0.06-0.617c-0.14,0.11-0.312,0.16-0.481,0.146l-0.057,0.057c0.012,0.165-0.035,0.334-0.14,0.472
			c0.19-0.135,0.455-0.117,0.625,0.053c0.19,0.19,0.19,0.5,0,0.69c-0.19,0.19-0.499,0.19-0.689,0
			c-0.168-0.167-0.188-0.428-0.059-0.618c-0.14,0.11-0.313,0.159-0.481,0.146l-0.043,0.042c0.014,0.169-0.036,0.341-0.146,0.481
			c0.19-0.128,0.448-0.107,0.617,0.06c0.19,0.19,0.19,0.499,0,0.69c-0.19,0.19-0.499,0.19-0.689,0
			c-0.17-0.171-0.188-0.436-0.053-0.627c-0.138,0.106-0.306,0.152-0.472,0.14l-0.069,0.07c0.012,0.166-0.035,0.335-0.141,0.474
			c0.19-0.133,0.454-0.115,0.623,0.054c0.19,0.19,0.19,0.499,0,0.689c-0.19,0.191-0.499,0.191-0.689,0
			c-0.169-0.168-0.188-0.43-0.058-0.619c-0.14,0.109-0.311,0.157-0.479,0.144l-0.048,0.048c0.012,0.169-0.036,0.34-0.146,0.48
			c0.19-0.128,0.45-0.108,0.618,0.059c0.19,0.19,0.19,0.499,0,0.689c-0.19,0.19-0.499,0.19-0.689,0
			c-0.17-0.171-0.188-0.435-0.053-0.624c-0.139,0.105-0.307,0.152-0.474,0.14l-0.066,0.066c0.013,0.167-0.034,0.337-0.142,0.476
			c0.19-0.132,0.453-0.114,0.623,0.056c0.19,0.19,0.19,0.499,0,0.69c-0.19,0.19-0.499,0.19-0.689,0
			c-0.169-0.169-0.188-0.43-0.057-0.621c-0.14,0.109-0.31,0.156-0.478,0.143L9.609,7.218c0.013,0.169-0.035,0.34-0.145,0.48
			c0.19-0.13,0.45-0.11,0.618,0.058c0.19,0.19,0.19,0.499,0,0.689c-0.19,0.19-0.499,0.19-0.689,0
			c-0.169-0.17-0.188-0.433-0.054-0.624C9.201,7.927,9.032,7.974,8.865,7.962L8.803,8.024C8.816,8.192,8.768,8.361,8.66,8.5
			c0.19-0.131,0.452-0.113,0.621,0.057c0.191,0.19,0.191,0.499,0,0.689c-0.19,0.191-0.499,0.191-0.689,0
			C8.423,9.077,8.404,8.815,8.536,8.625C8.397,8.733,8.226,8.781,8.06,8.767L7.999,8.828c0.014,0.166-0.035,0.337-0.142,0.475
			C8.047,9.171,8.31,9.19,8.479,9.359c0.191,0.19,0.191,0.499,0,0.689c-0.19,0.19-0.499,0.19-0.689,0
			c-0.169-0.168-0.188-0.43-0.057-0.62c-0.14,0.109-0.31,0.157-0.478,0.143L7.201,9.626c0.012,0.168-0.036,0.339-0.143,0.478
			c0.19-0.131,0.452-0.112,0.62,0.057c0.191,0.19,0.191,0.499,0,0.689c-0.19,0.19-0.499,0.19-0.689,0
			c-0.169-0.169-0.188-0.432-0.056-0.621c-0.14,0.107-0.309,0.154-0.476,0.142l-0.052,0.052c0.012,0.169-0.036,0.341-0.147,0.481
			c0.19-0.128,0.45-0.109,0.617,0.059c0.19,0.19,0.19,0.499,0,0.689c-0.19,0.19-0.499,0.19-0.689,0
			c-0.171-0.17-0.188-0.435-0.053-0.625c-0.138,0.105-0.308,0.152-0.473,0.14l-0.066,0.066c0.012,0.168-0.035,0.337-0.142,0.477
			c0.19-0.132,0.453-0.114,0.621,0.055c0.191,0.19,0.191,0.499,0,0.69c-0.19,0.19-0.498,0.19-0.689,0
			c-0.169-0.169-0.188-0.431-0.057-0.62c-0.14,0.108-0.31,0.156-0.477,0.142l-0.052,0.052c0.012,0.169-0.036,0.341-0.145,0.481
			c0.19-0.13,0.45-0.11,0.619,0.058c0.19,0.19,0.19,0.499,0,0.689c-0.191,0.19-0.499,0.19-0.69,0
			c-0.17-0.17-0.188-0.434-0.054-0.624c-0.138,0.106-0.308,0.153-0.474,0.141L3.996,12.83c0.012,0.169-0.036,0.34-0.144,0.479
			c0.19-0.13,0.451-0.11,0.619,0.058c0.19,0.19,0.19,0.499,0,0.689c-0.19,0.19-0.499,0.19-0.69,0
			c-0.169-0.169-0.187-0.433-0.054-0.624c-0.138,0.107-0.309,0.154-0.475,0.142L3.18,13.648c0.012,0.164-0.034,0.331-0.138,0.469
			c0.19-0.136,0.457-0.12,0.628,0.052c0.191,0.19,0.191,0.499,0,0.689c-0.191,0.19-0.5,0.19-0.69,0
			c-0.167-0.167-0.187-0.425-0.061-0.614c-0.141,0.111-0.314,0.16-0.484,0.147L2.39,14.436c0.012,0.168-0.035,0.338-0.143,0.478
			c0.19-0.131,0.452-0.112,0.621,0.057c0.191,0.19,0.191,0.499,0,0.689c-0.191,0.19-0.499,0.19-0.69,0
			c-0.169-0.169-0.187-0.432-0.056-0.621c-0.139,0.106-0.309,0.154-0.476,0.142l-0.059,0.058c0.013,0.168-0.035,0.337-0.142,0.477
			c0.189-0.131,0.452-0.113,0.621,0.057c0.191,0.19,0.191,0.499,0,0.689c-0.19,0.19-0.499,0.19-0.689,0
			c-0.169-0.169-0.188-0.431-0.056-0.621c-0.14,0.107-0.31,0.156-0.477,0.143l-0.063,0.063c0.012,0.164-0.035,0.335-0.141,0.473
			c0.19-0.133,0.455-0.116,0.624,0.055c0.191,0.19,0.191,0.499,0,0.689c-0.162,0.162-0.411,0.185-0.598,0.07
			c0.098,0.141,0.136,0.31,0.117,0.472l0.032,0.033c0.165-0.02,0.335,0.02,0.478,0.119c-0.108-0.188-0.083-0.43,0.077-0.589
			c0.19-0.19,0.499-0.19,0.689,0c0.19,0.19,0.19,0.499,0,0.689c-0.161,0.16-0.403,0.185-0.59,0.076
			c0.098,0.142,0.136,0.311,0.117,0.476l0.04,0.04c0.192-0.012,0.388,0.054,0.535,0.201c0.147,0.145,0.213,0.342,0.201,0.533
			l0.062,0.063c0.193-0.011,0.388,0.054,0.535,0.201c0.147,0.146,0.213,0.342,0.201,0.535l0.069,0.069
			c0.192-0.012,0.388,0.054,0.535,0.201c0.147,0.147,0.212,0.342,0.201,0.534l0.045,0.046c0.192-0.012,0.388,0.054,0.535,0.201
			c0.146,0.146,0.213,0.342,0.201,0.534l0.065,0.066c0.191-0.012,0.387,0.054,0.534,0.2c0.147,0.147,0.214,0.342,0.201,0.535
			l0.058,0.057c0.192-0.012,0.387,0.056,0.534,0.201c0.147,0.147,0.214,0.342,0.201,0.534l0.056,0.055
			c0.191-0.011,0.388,0.054,0.535,0.201c0.146,0.148,0.212,0.342,0.2,0.535l0.059,0.059c0.192-0.012,0.388,0.055,0.535,0.201
			c0.146,0.146,0.212,0.342,0.201,0.534l0.059,0.059c0.192-0.012,0.388,0.054,0.534,0.201c0.147,0.146,0.214,0.342,0.201,0.534
			l0.069,0.07c0.192-0.012,0.388,0.055,0.535,0.201c0.147,0.146,0.213,0.343,0.201,0.534l0.052,0.053
			c0.191-0.012,0.387,0.054,0.534,0.2c0.146,0.146,0.213,0.343,0.201,0.535l0.058,0.057c0.191-0.011,0.387,0.054,0.534,0.201
			c0.146,0.147,0.213,0.344,0.201,0.534l0.058,0.058c0.191-0.012,0.387,0.055,0.534,0.201c0.147,0.147,0.214,0.344,0.201,0.534
			l0.061,0.062c0.191-0.013,0.387,0.054,0.534,0.2c0.146,0.148,0.213,0.343,0.201,0.535l0.061,0.062
			c0.192-0.013,0.388,0.053,0.534,0.201c0.146,0.146,0.213,0.342,0.201,0.535l0.057,0.057c0.192-0.012,0.388,0.054,0.534,0.201
			c0.147,0.146,0.214,0.342,0.201,0.534l0.057,0.057c0.192-0.011,0.388,0.054,0.534,0.203c0.147,0.145,0.214,0.341,0.201,0.534
			l0.063,0.063c0.192-0.012,0.387,0.055,0.534,0.2c0.146,0.146,0.213,0.344,0.201,0.535l0.059,0.059
			c0.191-0.012,0.388,0.055,0.534,0.2c0.147,0.147,0.213,0.344,0.201,0.535l0.019,0.017c0.078-0.011,0.157-0.008,0.235,0.007
			l0.004-0.002c-0.022-0.159,0.012-0.324,0.101-0.466c-0.182,0.09-0.408,0.059-0.559-0.091c-0.19-0.191-0.19-0.5,0-0.691
			c0.19-0.19,0.499-0.19,0.69,0c0.153,0.152,0.183,0.383,0.09,0.564c0.138-0.085,0.301-0.117,0.457-0.096l0.027-0.027
			c-0.021-0.159,0.012-0.325,0.101-0.465c-0.183,0.093-0.412,0.063-0.565-0.09c-0.191-0.191-0.191-0.499,0-0.688
			c0.19-0.191,0.498-0.191,0.689,0c0.153,0.152,0.183,0.381,0.09,0.563c0.14-0.088,0.304-0.122,0.463-0.1l0.023-0.023
			c-0.021-0.158,0.012-0.324,0.101-0.463c-0.184,0.094-0.413,0.063-0.566-0.092c-0.19-0.189-0.19-0.496,0-0.688
			c0.191-0.19,0.499-0.19,0.69,0c0.152,0.153,0.183,0.381,0.09,0.564c0.14-0.09,0.305-0.124,0.464-0.101l0.009-0.01
			c-0.022-0.162,0.013-0.331,0.106-0.472c-0.182,0.089-0.407,0.057-0.558-0.093c-0.19-0.191-0.19-0.5,0-0.691
			c0.191-0.19,0.5-0.19,0.69,0c0.154,0.154,0.184,0.388,0.087,0.572c0.138-0.085,0.3-0.117,0.456-0.096l0.037-0.037
			c-0.021-0.159,0.012-0.322,0.099-0.462c-0.183,0.094-0.412,0.065-0.566-0.089c-0.19-0.191-0.19-0.498,0-0.689
			c0.191-0.191,0.5-0.191,0.69,0c0.152,0.153,0.182,0.38,0.091,0.563c0.14-0.09,0.306-0.124,0.467-0.103l0.023-0.023
			c-0.021-0.157,0.011-0.321,0.099-0.461c-0.184,0.095-0.414,0.064-0.568-0.089c-0.191-0.189-0.191-0.499,0-0.689
			c0.191-0.189,0.499-0.189,0.69,0c0.152,0.152,0.182,0.379,0.091,0.562c0.14-0.09,0.306-0.123,0.467-0.102l0.016-0.016
			c-0.021-0.159,0.012-0.325,0.101-0.465c-0.183,0.092-0.411,0.063-0.564-0.091c-0.191-0.191-0.191-0.499,0-0.689
			c0.19-0.19,0.499-0.19,0.689,0c0.154,0.153,0.184,0.382,0.09,0.567c0.14-0.09,0.305-0.123,0.463-0.102l0.031-0.029
			c-0.022-0.157,0.011-0.319,0.098-0.459c-0.184,0.095-0.415,0.065-0.569-0.088c-0.19-0.191-0.19-0.5,0-0.691
			c0.191-0.19,0.5-0.19,0.69,0c0.151,0.152,0.182,0.379,0.091,0.561c0.142-0.09,0.308-0.125,0.468-0.104l0.017-0.016
			c-0.022-0.158,0.013-0.323,0.101-0.463c-0.183,0.094-0.413,0.063-0.565-0.089c-0.191-0.192-0.191-0.501,0-0.691
			c0.19-0.19,0.498-0.19,0.69,0c0.152,0.153,0.182,0.382,0.09,0.565c0.14-0.09,0.305-0.122,0.464-0.101l0.019-0.02
			c-0.021-0.159,0.012-0.324,0.102-0.465c-0.183,0.093-0.411,0.062-0.563-0.09c-0.191-0.192-0.191-0.499,0-0.691
			c0.189-0.189,0.498-0.189,0.689,0c0.153,0.153,0.183,0.383,0.089,0.566c0.14-0.088,0.304-0.121,0.462-0.1l0.025-0.025
			c-0.021-0.158,0.012-0.322,0.101-0.463c-0.183,0.093-0.413,0.063-0.566-0.09c-0.19-0.189-0.19-0.498,0-0.689
			c0.19-0.19,0.5-0.19,0.691,0c0.153,0.155,0.182,0.382,0.09,0.565c0.14-0.089,0.305-0.122,0.463-0.101l0.026-0.026
			c-0.021-0.157,0.012-0.321,0.1-0.461c-0.183,0.095-0.414,0.066-0.568-0.088c-0.19-0.19-0.19-0.499,0-0.691
			c0.191-0.19,0.499-0.19,0.69,0c0.152,0.153,0.182,0.379,0.092,0.562c0.14-0.089,0.306-0.124,0.466-0.103l0.016-0.015
			c-0.021-0.159,0.012-0.325,0.102-0.466c-0.183,0.091-0.412,0.062-0.565-0.09c-0.19-0.19-0.19-0.5,0-0.691
			c0.192-0.19,0.499-0.19,0.69,0.001c0.153,0.152,0.182,0.383,0.09,0.565c0.14-0.088,0.304-0.121,0.463-0.099l0.03-0.031
			c-0.021-0.158,0.011-0.32,0.098-0.46c-0.184,0.095-0.415,0.066-0.569-0.088c-0.19-0.191-0.19-0.5,0-0.689
			c0.191-0.191,0.499-0.191,0.691,0c0.151,0.151,0.182,0.378,0.091,0.561c0.141-0.091,0.308-0.126,0.469-0.104l0.012-0.012
			c-0.022-0.161,0.012-0.326,0.103-0.467c-0.183,0.093-0.411,0.062-0.563-0.09c-0.19-0.192-0.19-0.499,0-0.691
			c0.191-0.189,0.499-0.189,0.69,0c0.153,0.154,0.183,0.384,0.09,0.567c0.139-0.087,0.303-0.12,0.461-0.099l0.033-0.035
			c-0.021-0.157,0.011-0.317,0.097-0.457c-0.183,0.097-0.415,0.067-0.569-0.088c-0.19-0.191-0.19-0.499,0-0.689
			c0.19-0.192,0.5-0.192,0.689,0c0.152,0.152,0.182,0.378,0.093,0.559c0.142-0.092,0.309-0.126,0.469-0.105l0.007-0.006
			c-0.022-0.161,0.012-0.329,0.104-0.469c-0.183,0.09-0.409,0.061-0.561-0.091c-0.19-0.19-0.19-0.499,0-0.689
			c0.19-0.191,0.499-0.19,0.689,0c0.154,0.153,0.184,0.384,0.089,0.568c0.138-0.086,0.301-0.119,0.458-0.098l0.021-0.022
			c-0.021-0.161,0.014-0.327,0.105-0.468c-0.182,0.089-0.409,0.059-0.561-0.093c-0.19-0.19-0.19-0.499,0-0.689
			c0.19-0.19,0.499-0.19,0.689,0c0.154,0.153,0.184,0.385,0.088,0.568c0.14-0.085,0.301-0.118,0.459-0.096l0.025-0.026
			c-0.021-0.161,0.013-0.326,0.103-0.467c-0.182,0.091-0.409,0.06-0.562-0.093c-0.19-0.189-0.19-0.498,0-0.688
			c0.19-0.191,0.499-0.191,0.69,0c0.154,0.153,0.183,0.383,0.088,0.567c0.14-0.088,0.303-0.121,0.461-0.099l0.021-0.022
			c-0.021-0.161,0.013-0.326,0.103-0.467c-0.182,0.09-0.409,0.061-0.562-0.091c-0.19-0.19-0.19-0.499,0-0.689
			c0.19-0.192,0.499-0.192,0.69,0c0.154,0.153,0.182,0.384,0.088,0.567c0.14-0.087,0.303-0.118,0.46-0.097l0.027-0.027
			C32.941,17.517,32.975,17.351,33.065,17.211z"/>
		<path class="st0" d="M33.285,16.55c0.071,0.138,0.072,0.305,0.001,0.443c0.138-0.084,0.299-0.116,0.455-0.096
			c-0.016-0.078-0.018-0.158-0.007-0.237l-0.004-0.003C33.576,16.672,33.419,16.636,33.285,16.55z"/>
	</g>
</g>
<path class="st0" d="M1.67,41.326l2.588,5.978l2.597-5.978L8.3,48.853H7.488l-0.916-4.816H6.553l-2.295,5.109l-2.286-5.109H1.954
	l-0.916,4.816H0.225L1.67,41.326z"/>
<path class="st0" d="M11.189,41.732h3.693v0.737h-2.899v2.116h2.814v0.737h-2.814v2.795h2.899v0.737h-3.693V41.732z"/>
<path class="st0" d="M19.008,48.116h1.964v0.737h-2.758v-7.121h0.793V48.116z"/>
<path class="st0" d="M23.739,41.732h1.171c1.294,0,2.38,0.472,2.38,1.927c0,0.576-0.217,1.067-0.699,1.388
	c0.85,0.208,1.35,0.973,1.35,1.823c0,1.416-1.143,1.983-2.55,1.983h-1.653V41.732z M24.532,44.867h0.302
	c0.897,0,1.662-0.104,1.662-1.209c0-1.077-0.68-1.19-1.653-1.19h-0.312V44.867z M24.532,48.116h0.793
	c0.888,0,1.823-0.217,1.823-1.303c0-1.105-1.058-1.265-1.927-1.265h-0.689V48.116z"/>
<path class="st0" d="M38.15,45.302c0,2.049-1.681,3.674-3.712,3.674c-2.031,0-3.712-1.624-3.712-3.674
	c0-2.04,1.681-3.693,3.712-3.693C36.469,41.609,38.15,43.262,38.15,45.302z M31.52,45.292c0,1.605,1.303,2.947,2.918,2.947
	s2.918-1.341,2.918-2.947c0-1.615-1.284-2.947-2.918-2.947C32.804,42.346,31.52,43.677,31.52,45.292z"/>
<path class="st0" d="M41.983,45.972c0,0.529-0.019,1.134,0.312,1.587c0.312,0.434,0.916,0.68,1.436,0.68
	c0.51,0,1.067-0.236,1.398-0.633c0.378-0.454,0.349-1.077,0.349-1.634v-4.24h0.793v4.458c0,0.774-0.057,1.388-0.623,1.974
	c-0.491,0.529-1.199,0.812-1.917,0.812c-0.671,0-1.36-0.255-1.842-0.727c-0.623-0.595-0.699-1.247-0.699-2.059v-4.458h0.793V45.972z
	"/>
<path class="st0" d="M50.453,48.853H49.66v-7.121h1.029c1.351,0,2.607,0.359,2.607,1.964c0,1.095-0.689,1.87-1.785,1.964
	l2.267,3.192h-0.973l-2.153-3.126h-0.198V48.853z M50.453,45.028h0.246c0.897,0,1.804-0.17,1.804-1.275
	c0-1.171-0.859-1.284-1.813-1.284h-0.236V45.028z"/>
<path class="st0" d="M56.809,41.43l5.553,5.818v-5.515h0.793v7.442l-5.553-5.808v5.487h-0.793V41.43z"/>
<path class="st0" d="M66.62,41.732h3.693v0.737h-2.899v2.116h2.814v0.737h-2.814v2.795h2.899v0.737H66.62V41.732z"/>
<path class="st0" d="M79.415,46.832l-0.86,2.021h-0.869l3.287-7.461l3.202,7.461h-0.878l-0.841-2.021H79.415z M80.955,43.243
	l-1.218,2.852h2.408L80.955,43.243z"/>
<path class="st0" d="M87.517,45.972c0,0.529-0.019,1.134,0.312,1.587c0.311,0.434,0.916,0.68,1.435,0.68
	c0.51,0,1.067-0.236,1.398-0.633c0.378-0.454,0.35-1.077,0.35-1.634v-4.24h0.793v4.458c0,0.774-0.057,1.388-0.623,1.974
	c-0.491,0.529-1.199,0.812-1.917,0.812c-0.67,0-1.36-0.255-1.842-0.727c-0.623-0.595-0.699-1.247-0.699-2.059v-4.458h0.793V45.972z"
	/>
<path class="st0" d="M98.424,43.12c-0.283-0.491-0.623-0.775-1.228-0.775c-0.633,0-1.181,0.454-1.181,1.105
	c0,0.614,0.633,0.897,1.114,1.115l0.472,0.208c0.925,0.406,1.709,0.869,1.709,2.002c0,1.247-1.001,2.201-2.238,2.201
	c-1.143,0-1.993-0.737-2.22-1.842l0.775-0.217c0.104,0.727,0.661,1.322,1.426,1.322c0.765,0,1.464-0.586,1.464-1.388
	c0-0.831-0.652-1.115-1.313-1.417l-0.435-0.189c-0.831-0.378-1.549-0.803-1.549-1.823c0-1.105,0.935-1.813,1.993-1.813
	c0.793,0,1.464,0.406,1.842,1.105L98.424,43.12z"/>
<path class="st0" d="M104.345,48.853h-0.793v-6.384h-1.719v-0.737h4.25v0.737h-1.738V48.853z"/>
<path class="st0" d="M109.671,48.853h-0.793v-7.121h1.029c1.351,0,2.607,0.359,2.607,1.964c0,1.095-0.69,1.87-1.785,1.964
	l2.267,3.192h-0.973l-2.153-3.126h-0.198V48.853z M109.671,45.028h0.246c0.897,0,1.804-0.17,1.804-1.275
	c0-1.171-0.859-1.284-1.813-1.284h-0.236V45.028z"/>
<path class="st0" d="M117.046,46.832l-0.86,2.021h-0.869l3.287-7.461l3.202,7.461h-0.878l-0.841-2.021H117.046z M118.585,43.243
	l-1.218,2.852h2.408L118.585,43.243z"/>
<path class="st0" d="M125.355,48.116h1.964v0.737h-2.758v-7.121h0.793V48.116z"/>
<path class="st0" d="M130.898,48.853h-0.793v-7.121h0.793V48.853z"/>
<path class="st0" d="M135.016,46.832l-0.86,2.021h-0.869l3.287-7.461l3.202,7.461h-0.878l-0.841-2.021H135.016z M136.555,43.243
	l-1.218,2.852h2.408L136.555,43.243z"/>
<rect y="37.605" class="st0" width="140" height="0.201"/>
</svg>
